<?xml version="1.0" encoding="utf-8"?>
<!-- Generator: Adobe Illustrator 18.0.0, SVG Export Plug-In . SVG Version: 6.00 Build 0)  -->
<!DOCTYPE svg PUBLIC "-//W3C//DTD SVG 1.1//EN" "http://www.w3.org/Graphics/SVG/1.1/DTD/svg11.dtd">
<svg version="1.1" id="Capa_1" xmlns="http://www.w3.org/2000/svg" xmlns:xlink="http://www.w3.org/1999/xlink" x="0px" y="0px"
	 viewBox="-113.4 728.5 226.8 226.8" enable-background="new -113.4 728.5 226.8 226.8" xml:space="preserve">
<g>
	<g>
		<g enable-background="new    ">
			<g enable-background="new    ">
				<defs>
					<path id="SVGID_1_" enable-background="new    " d="M-19.9,759.5l0.4,10.1c0-1-0.3-1.9-0.6-2.7c-0.4-0.8-0.9-1.6-1.6-2.2
						c-0.7-0.6-1.4-1.1-2.3-1.5c-0.9-0.3-1.8-0.5-2.8-0.5l-0.5-10.2c1,0,2,0.2,2.8,0.5c0.9,0.4,1.7,0.9,2.3,1.5
						c0.7,0.6,1.2,1.4,1.6,2.2C-20.2,757.6-20,758.5-19.9,759.5z"/>
				</defs>
				<clipPath id="SVGID_2_">
					<use xlink:href="#SVGID_1_"  overflow="visible"/>
				</clipPath>
				<g clip-path="url(#SVGID_2_)" enable-background="new    ">
					<path fill="#720008" d="M-19.9,759.5l0.4,10.1c0-1-0.3-1.9-0.6-2.7c-0.4-0.8-0.9-1.6-1.6-2.2c-0.7-0.6-1.4-1.1-2.3-1.5
						c-0.9-0.3-1.8-0.5-2.8-0.5l-0.5-10.2c1,0,2,0.2,2.8,0.5c0.9,0.4,1.7,0.9,2.3,1.5c0.7,0.6,1.2,1.4,1.6,2.2
						C-20.2,757.6-20,758.5-19.9,759.5"/>
				</g>
			</g>
			<g>
				<polygon fill="#700008" points="33.3,759.8 32.7,769.9 28.4,768.4 29,758.2 				"/>
			</g>
			<g>
				<polygon fill="#4E4E4E" points="29,758.2 33.3,759.8 29,761.3 				"/>
			</g>
			<g>
				<polygon fill="#323232" points="33.3,759.8 32.7,769.9 28.4,771.4 29,761.3 				"/>
			</g>
			<g enable-background="new    ">
				<defs>
					<path id="SVGID_3_" enable-background="new    " d="M-19.9,759.5c0.1,3.4,0.3,6.7,0.4,10.1c0,0,0,0,0,0.1s0,0,0,0.1
						c0,0,0,0,0,0.1c0,0,0,0,0,0.1c0,0.3,0,0.5,0,0.9s0,0.7,0,1c0,0.4,0,0.7,0,1.1s0,0.8,0,1.3l-0.4-10c0-0.5,0-0.9,0-1.3
						c0-0.4,0-0.8,0-1.2c0-0.4,0-0.7,0-1s0-0.6,0-0.9c0,0,0,0,0-0.1c0,0,0,0,0-0.1C-19.9,759.6-19.9,759.6-19.9,759.5
						C-19.9,759.5-19.9,759.5-19.9,759.5z"/>
				</defs>
				<clipPath id="SVGID_4_">
					<use xlink:href="#SVGID_3_"  overflow="visible"/>
				</clipPath>
				<g clip-path="url(#SVGID_4_)" enable-background="new    ">
					<path fill="#800009" d="M-19.9,759.5l0.4,10.1c0,0,0,0,0,0.1s0,0,0,0.1c0,0,0,0,0,0.1c0,0,0,0,0,0.1c0,0.2,0,0.5,0,0.8
						s0,0.6,0,1c0,0.3,0,0.7,0,1.1c0,0.4,0,0.8,0,1.2l-0.4-10c0-0.4,0-0.8,0-1.2s0-0.8,0-1.1c0-0.3,0-0.7,0-1c0-0.3,0-0.6,0-0.8
						c0,0,0,0,0-0.1c0,0,0,0,0-0.1C-19.9,759.6-19.9,759.6-19.9,759.5C-19.9,759.5-19.9,759.5-19.9,759.5"/>
					<path fill="#84000A" d="M-19.8,763.9l0.4,10c0,0,0,0,0,0.1c0,0,0,0,0,0.1c0,0,0,0,0,0.1c0,0,0,0,0,0.1l-0.4-10c0,0,0,0,0-0.1
						c0,0,0,0,0-0.1C-19.8,764-19.8,764-19.8,763.9C-19.8,763.9-19.8,763.9-19.8,763.9"/>
				</g>
			</g>
			<g>
				<polygon fill="#750008" points="-34.6,767.1 -33.9,777 -71.1,777 -72.5,767.1 				"/>
			</g>
			<g>
				<path fill="#C2000E" d="M-27.3,752.5h41.4l0,14.6h-33.8c0-0.8-0.1-1.5-0.1-2.2c0-0.7-0.1-1.4-0.1-2c0-0.6,0-1.2,0-1.7s0-1,0-1.4
					c0-1-0.2-2-0.6-2.8c-0.4-0.9-0.9-1.7-1.6-2.3c-0.7-0.7-1.5-1.2-2.4-1.6C-25.3,752.7-26.3,752.5-27.3,752.5z"/>
			</g>
			<g>
				<polygon fill="#750008" points="14.1,767.1 13.8,777 -19.3,777 -19.7,767.1 				"/>
			</g>
			<g enable-background="new    ">
				<defs>
					<path id="SVGID_5_" enable-background="new    " d="M-19.4,774.1l-0.4-10c0,0.2,0,0.5,0,0.7c0,0.2,0,0.5,0,0.7
						c0,0.2,0,0.5,0,0.7c0,0.3,0,0.5,0,0.8l0.4,9.9c0-0.3,0-0.5,0-0.8c0-0.2,0-0.5,0-0.7s0-0.5,0-0.7
						C-19.4,774.6-19.4,774.4-19.4,774.1z"/>
				</defs>
				<clipPath id="SVGID_6_">
					<use xlink:href="#SVGID_5_"  overflow="visible"/>
				</clipPath>
				<g clip-path="url(#SVGID_6_)" enable-background="new    ">
					<path fill="#720008" d="M-19.7,767.1l0.4,9.9c0-0.3,0-0.5,0-0.8c0-0.2,0-0.5,0-0.7s0-0.5,0-0.7c0-0.2,0-0.5,0-0.7l-0.4-10
						c0,0.2,0,0.5,0,0.7c0,0.2,0,0.5,0,0.7c0,0.2,0,0.5,0,0.7C-19.7,766.6-19.7,766.8-19.7,767.1"/>
				</g>
			</g>
			<g enable-background="new    ">
				<defs>
					<path id="SVGID_7_" enable-background="new    " d="M-27.3,752.5l0.5,10.2c-1,0-2,0.2-2.8,0.6c-0.9,0.4-1.7,0.9-2.3,1.5
						c-0.7,0.6-1.2,1.4-1.6,2.3c-0.4,0.9-0.6,1.8-0.6,2.8c0,0.5,0,1,0,1.5c0,0.5,0,1.1,0,1.7s0,1.2,0.1,1.9c0,0.7,0.1,1.3,0.1,2.1
						l-0.7-9.9c0-0.7-0.1-1.4-0.1-2.1c0-0.7-0.1-1.3-0.1-1.9c0-0.6,0-1.2,0-1.7c0-0.5,0-1.1,0-1.5c0-1,0.2-2,0.6-2.8
						c0.4-0.9,0.9-1.7,1.6-2.3c0.7-0.7,1.5-1.2,2.4-1.6C-29.4,752.7-28.4,752.5-27.3,752.5z"/>
				</defs>
				<clipPath id="SVGID_8_">
					<use xlink:href="#SVGID_7_"  overflow="visible"/>
				</clipPath>
				<g clip-path="url(#SVGID_8_)" enable-background="new    ">
					<path fill="#720008" d="M-27.3,752.5l0.5,10.2c-0.6,0-1.2,0.1-1.7,0.2c-0.5,0.1-1.1,0.3-1.6,0.6c-0.5,0.2-1,0.5-1.4,0.9
						c-0.4,0.3-0.8,0.7-1.1,1.1l-0.7-10.2c0.3-0.4,0.7-0.8,1.2-1.2c0.4-0.3,0.9-0.6,1.4-0.9c0.5-0.2,1-0.4,1.6-0.6
						C-28.5,752.6-27.9,752.5-27.3,752.5"/>
					<path fill="#770009" d="M-33.2,755.3l0.7,10.2c-0.1,0.1-0.2,0.2-0.3,0.3s-0.2,0.2-0.2,0.3c-0.1,0.1-0.1,0.2-0.2,0.4
						c-0.1,0.1-0.1,0.2-0.2,0.4l-0.7-10.1c0.1-0.1,0.1-0.3,0.2-0.4c0.1-0.1,0.1-0.2,0.2-0.4c0.1-0.1,0.2-0.2,0.2-0.4
						C-33.4,755.5-33.3,755.4-33.2,755.3"/>
					<path fill="#7B0009" d="M-34.1,756.7l0.7,10.1c-0.1,0.1-0.1,0.2-0.2,0.4s-0.1,0.2-0.1,0.4c0,0.1-0.1,0.2-0.1,0.4
						s-0.1,0.3-0.1,0.4l-0.7-10.1c0-0.1,0.1-0.3,0.1-0.4c0-0.1,0.1-0.3,0.1-0.4c0-0.1,0.1-0.2,0.1-0.4
						C-34.2,757-34.2,756.9-34.1,756.7"/>
					<path fill="#800009" d="M-34.7,758.2l0.7,10.1c0,0.1-0.1,0.2-0.1,0.4c0,0.1,0,0.3-0.1,0.4c0,0.1,0,0.3,0,0.4c0,0.1,0,0.3,0,0.4
						c0,0.3,0,0.7,0,1c0,0.3,0,0.7,0,1.1c0,0.4,0,0.8,0,1.2c0,0.4,0,0.8,0,1.2l-0.7-10c0-0.4,0-0.9,0-1.3c0-0.4,0-0.8,0-1.2
						c0-0.4,0-0.7,0-1.1c0-0.4,0-0.7,0-1c0-0.1,0-0.3,0-0.4c0-0.1,0-0.3,0-0.4c0-0.1,0-0.3,0.1-0.4
						C-34.7,758.5-34.7,758.4-34.7,758.2"/>
					<path fill="#84000A" d="M-34.7,764.4l0.7,10c0,0.2,0,0.4,0,0.6c0,0.2,0,0.4,0,0.7c0,0.2,0,0.4,0,0.7c0,0.2,0,0.5,0,0.7
						l-0.7-9.9c0-0.2,0-0.5,0-0.7c0-0.2,0-0.5,0-0.7c0-0.2,0-0.5,0-0.7C-34.7,764.8-34.7,764.6-34.7,764.4"/>
				</g>
			</g>
			<g enable-background="new    ">
				<defs>
					<path id="SVGID_9_" enable-background="new    " d="M-52,814.3c-0.1-0.5-0.2-1-0.3-1.5c-0.2-0.5-0.4-0.9-0.6-1.4
						c-0.3-0.4-0.6-0.8-0.9-1.2c-0.4-0.4-0.7-0.7-1.2-1l-1.1-9.3c0.4,0.3,0.8,0.7,1.2,1c0.4,0.4,0.7,0.8,0.9,1.2
						c0.3,0.4,0.5,0.9,0.6,1.4c0.2,0.5,0.3,1,0.3,1.5C-52.7,807.8-52.3,811.5-52,814.3z"/>
				</defs>
				<clipPath id="SVGID_10_">
					<use xlink:href="#SVGID_9_"  overflow="visible"/>
				</clipPath>
			</g>
			<g enable-background="new    ">
				<defs>
					<path id="SVGID_11_" enable-background="new    " d="M-32.8,798.9c0.1,1.8,0.2,3.7,0.2,5.6c0.1,1.9,0.1,3.8,0.2,5.6
						c0.1,1.9,0.1,3.7,0.1,5.6c0,1.8,0,3.6,0,5.4c-0.2-3-0.4-6-0.7-9.1c0-1.8,0-3.6,0-5.5c0-1.9-0.1-3.8-0.1-5.7
						c-0.1-1.9-0.1-3.8-0.2-5.7c-0.1-1.9-0.2-3.8-0.2-5.7c-0.1-1.8-0.2-3.6-0.3-5.4c-0.1-1.8-0.2-3.5-0.3-5.1
						c-0.1-1.7-0.2-3.3-0.3-4.8c-0.1-1.5-0.2-3-0.2-4.4l0.7,9.9c0.1,1.4,0.1,2.8,0.2,4.3c0.1,1.5,0.2,3.1,0.3,4.7
						c0.1,1.6,0.2,3.3,0.3,5C-33,795.4-32.9,797.1-32.8,798.9z"/>
				</defs>
				<clipPath id="SVGID_12_">
					<use xlink:href="#SVGID_11_"  overflow="visible"/>
				</clipPath>
			</g>
			<g enable-background="new    ">
				<defs>
					<path id="SVGID_13_" enable-background="new    " d="M-53,805.1l1.1,9.2c0,0.3,0.1,0.7,0,1c0,0.3,0,0.7-0.1,1s-0.1,0.7-0.3,1
						c-0.1,0.3-0.3,0.7-0.4,1c-0.1,0.1-0.2,0.3-0.2,0.4c-0.1,0.1-0.1,0.3-0.2,0.4s-0.1,0.2-0.2,0.3c-0.1,0.1-0.1,0.2-0.2,0.3
						c-0.1,0.1-0.1,0.2-0.2,0.3c-0.1,0.1-0.1,0.2-0.2,0.3c-0.1,0.1-0.1,0.2-0.2,0.3c-0.1,0.1-0.1,0.2-0.2,0.3
						c-0.1,0.2-0.3,0.4-0.4,0.6c-0.1,0.2-0.3,0.4-0.4,0.6c-0.1,0.2-0.3,0.4-0.4,0.6c-0.2,0.2-0.3,0.4-0.5,0.6
						c-0.3,0.4-0.6,0.8-0.9,1.2c-0.3,0.4-0.6,0.8-0.9,1.2c-0.3,0.4-0.6,0.8-0.8,1.2c-0.3,0.4-0.5,0.8-0.7,1.2
						c-0.1,0.2-0.3,0.5-0.4,0.7c-0.1,0.2-0.2,0.5-0.3,0.7c-0.1,0.2-0.2,0.4-0.2,0.6c-0.1,0.2-0.1,0.3-0.1,0.5c0,0.1,0,0.1,0,0.2
						c0,0.1,0,0.1,0,0.2c0,0,0,0.1,0,0.1s0,0.1,0,0.1l-1.2-8.9c0,0,0,0,0-0.1c0,0,0-0.1,0-0.1c0,0,0-0.1,0-0.2c0-0.1,0-0.1,0.1-0.2
						c0-0.1,0.1-0.3,0.1-0.5c0.1-0.2,0.1-0.4,0.2-0.6c0.1-0.2,0.2-0.4,0.3-0.7c0.1-0.2,0.3-0.5,0.4-0.7c0.2-0.4,0.5-0.8,0.7-1.2
						c0.3-0.4,0.5-0.8,0.8-1.2c0.3-0.4,0.6-0.8,0.9-1.2c0.3-0.4,0.6-0.8,0.9-1.2c0.2-0.2,0.3-0.4,0.5-0.6c0.2-0.2,0.3-0.4,0.5-0.6
						c0.2-0.2,0.3-0.4,0.4-0.6c0.1-0.2,0.3-0.4,0.4-0.6c0.1-0.1,0.1-0.2,0.2-0.3c0.1-0.1,0.1-0.2,0.2-0.3s0.1-0.2,0.2-0.3
						s0.1-0.2,0.2-0.3c0.1-0.1,0.1-0.2,0.2-0.3c0.1-0.1,0.1-0.2,0.2-0.3c0.1-0.1,0.1-0.2,0.2-0.4s0.2-0.3,0.2-0.4
						c0.2-0.3,0.3-0.7,0.4-1c0.1-0.3,0.2-0.7,0.3-1c0.1-0.3,0.1-0.7,0.1-1C-53,805.8-53,805.4-53,805.1z"/>
				</defs>
				<clipPath id="SVGID_14_">
					<use xlink:href="#SVGID_13_"  overflow="visible"/>
				</clipPath>
				<g clip-path="url(#SVGID_14_)" enable-background="new    ">
					<path fill="#84000A" d="M-53,805.1l1.1,9.2c0,0,0,0.1,0,0.1c0,0,0,0.1,0,0.1s0,0.1,0,0.1c0,0,0,0.1,0,0.1l-1.1-9.2
						c0,0,0-0.1,0-0.1c0,0,0-0.1,0-0.1c0,0,0-0.1,0-0.1C-53,805.2-53,805.1-53,805.1"/>
					<path fill="#800009" d="M-53,805.7l1.1,9.2c0,0.1,0,0.3,0,0.5s0,0.3,0,0.5s0,0.3-0.1,0.5c0,0.2-0.1,0.3-0.1,0.5l-1.1-9.2
						c0-0.2,0.1-0.3,0.1-0.5c0-0.2,0-0.3,0.1-0.5c0-0.2,0-0.3,0-0.5S-53,805.8-53,805.7"/>
					<path fill="#7B0009" d="M-53.1,807.5l1.1,9.2c0,0.1-0.1,0.3-0.1,0.4c0,0.1-0.1,0.3-0.1,0.4c0,0.1-0.1,0.2-0.1,0.4
						c0,0.1-0.1,0.2-0.2,0.4l-1.1-9.1c0.1-0.1,0.1-0.2,0.2-0.4c0.1-0.1,0.1-0.3,0.1-0.4c0-0.1,0.1-0.3,0.1-0.4
						C-53.2,807.7-53.2,807.6-53.1,807.5"/>
					<path fill="#770009" d="M-53.7,809l1.1,9.1c0,0,0,0,0,0.1c0,0,0,0,0,0.1s0,0,0,0.1c0,0,0,0,0,0.1c-0.1,0.1-0.2,0.3-0.2,0.4
						c-0.1,0.1-0.1,0.3-0.2,0.4s-0.1,0.2-0.2,0.3c-0.1,0.1-0.1,0.2-0.2,0.3c-0.1,0.1-0.1,0.2-0.2,0.3c-0.1,0.1-0.1,0.2-0.2,0.3
						c-0.1,0.1-0.1,0.2-0.2,0.3c-0.1,0.1-0.1,0.2-0.2,0.3c-0.1,0.2-0.3,0.4-0.4,0.6c-0.1,0.2-0.3,0.4-0.4,0.6
						c-0.1,0.2-0.3,0.4-0.4,0.6c-0.2,0.2-0.3,0.4-0.5,0.6c-0.3,0.4-0.6,0.8-0.9,1.2c-0.3,0.4-0.6,0.8-0.9,1.2
						c-0.3,0.4-0.6,0.8-0.8,1.2c-0.3,0.4-0.5,0.8-0.7,1.2c-0.1,0.1-0.1,0.2-0.1,0.3c0,0.1-0.1,0.2-0.1,0.3c0,0.1-0.1,0.2-0.1,0.3
						c0,0.1-0.1,0.2-0.1,0.2l-1.2-8.9c0-0.1,0.1-0.2,0.1-0.2s0.1-0.2,0.1-0.3s0.1-0.2,0.1-0.3c0-0.1,0.1-0.2,0.2-0.3
						c0.2-0.4,0.5-0.8,0.7-1.2c0.3-0.4,0.5-0.8,0.8-1.2c0.3-0.4,0.6-0.8,0.9-1.2c0.3-0.4,0.6-0.8,0.9-1.2c0.2-0.2,0.3-0.4,0.5-0.6
						c0.2-0.2,0.3-0.4,0.5-0.6c0.2-0.2,0.3-0.4,0.4-0.6c0.1-0.2,0.3-0.4,0.4-0.6c0.1-0.1,0.1-0.2,0.2-0.3c0.1-0.1,0.1-0.2,0.2-0.3
						s0.1-0.2,0.2-0.3s0.1-0.2,0.2-0.3c0.1-0.1,0.1-0.2,0.2-0.3c0.1-0.1,0.1-0.2,0.2-0.3c0.1-0.1,0.1-0.2,0.2-0.4s0.2-0.3,0.2-0.4
						c0,0,0,0,0-0.1s0,0,0-0.1C-53.7,809.1-53.7,809.1-53.7,809C-53.7,809-53.7,809-53.7,809"/>
					<path fill="#7B0009" d="M-61.2,820.2l1.2,8.9c-0.1,0.1-0.1,0.3-0.2,0.4c-0.1,0.1-0.1,0.3-0.2,0.4c0,0.1-0.1,0.2-0.1,0.3
						s-0.1,0.2-0.1,0.3c0,0,0,0,0,0c0,0,0,0,0,0c0,0,0,0,0,0c0,0,0,0,0,0l-1.2-8.9c0,0,0,0,0,0s0,0,0,0c0,0,0,0,0,0c0,0,0,0,0,0
						c0-0.1,0-0.2,0.1-0.3s0.1-0.2,0.1-0.3c0-0.1,0.1-0.2,0.2-0.4S-61.3,820.4-61.2,820.2"/>
					<path fill="#800009" d="M-61.8,821.8l1.2,8.9c0,0.1,0,0.1,0,0.2c0,0,0,0.1,0,0.1s0,0.1,0,0.1c0,0,0,0,0,0.1l-1.2-8.9
						c0,0,0,0,0-0.1c0,0,0-0.1,0-0.1c0,0,0-0.1,0-0.1S-61.8,821.9-61.8,821.8"/>
				</g>
			</g>
			<g enable-background="new    ">
				<defs>
					<path id="SVGID_15_" enable-background="new    " d="M-60.6,831.3c-0.4-3-0.8-5.9-1.2-8.9c0,0,0,0,0,0c0,0,0,0,0,0c0,0,0,0,0,0
						c0,0,0,0,0,0l1.2,8.9C-60.6,831.1-60.6,831.2-60.6,831.3C-60.6,831.2-60.6,831.2-60.6,831.3C-60.6,831.2-60.6,831.2-60.6,831.3
						C-60.6,831.2-60.6,831.3-60.6,831.3z"/>
				</defs>
				<clipPath id="SVGID_16_">
					<use xlink:href="#SVGID_15_"  overflow="visible"/>
				</clipPath>
				<g clip-path="url(#SVGID_16_)" enable-background="new    ">
					<path fill="#84000A" d="M-61.9,822.3l1.2,8.9c0,0,0,0,0,0s0,0,0,0c0,0,0,0,0,0c0,0,0,0,0,0l-1.2-8.9
						C-61.8,822.4-61.8,822.4-61.9,822.3C-61.9,822.3-61.9,822.3-61.9,822.3C-61.9,822.3-61.9,822.3-61.9,822.3
						C-61.9,822.3-61.9,822.3-61.9,822.3"/>
				</g>
			</g>
			<g enable-background="new    ">
				<defs>
					<path id="SVGID_17_" enable-background="new    " d="M-60.6,831.3l-1.2-8.9c0,0.1,0,0.3,0.1,0.5c0,0.2,0.1,0.4,0.1,0.6
						c0,0.2,0.1,0.4,0.1,0.6c0.1,0.2,0.1,0.4,0.2,0.7c0.1,0.3,0.1,0.5,0.2,0.8c0.1,0.3,0.2,0.5,0.3,0.8c0.1,0.3,0.2,0.6,0.3,0.9
						c0.1,0.3,0.2,0.6,0.3,0.9c0.2,0.6,0.5,1.2,0.8,1.8c0.3,0.6,0.6,1.2,0.9,1.7c0.3,0.6,0.6,1.1,1,1.6c0.3,0.5,0.7,1,1,1.4
						c0.2,0.3,0.4,0.6,0.6,0.8c0.2,0.3,0.4,0.5,0.6,0.7c0.2,0.2,0.4,0.4,0.6,0.5c0.2,0.2,0.3,0.3,0.5,0.4l1.1,8.6
						c-0.1-0.1-0.3-0.2-0.5-0.4c-0.2-0.2-0.4-0.3-0.6-0.5c-0.2-0.2-0.4-0.4-0.6-0.7c-0.2-0.2-0.4-0.5-0.6-0.8
						c-0.3-0.4-0.6-0.9-1-1.4c-0.3-0.5-0.6-1-0.9-1.6c-0.3-0.6-0.6-1.1-0.9-1.7c-0.3-0.6-0.5-1.2-0.8-1.7c-0.1-0.3-0.2-0.6-0.3-0.9
						s-0.2-0.6-0.3-0.8c-0.1-0.3-0.2-0.5-0.3-0.8c-0.1-0.3-0.2-0.5-0.2-0.8c-0.1-0.2-0.1-0.5-0.2-0.7s-0.1-0.4-0.1-0.6
						c0-0.2-0.1-0.4-0.1-0.5C-60.6,831.5-60.6,831.4-60.6,831.3z"/>
				</defs>
				<clipPath id="SVGID_18_">
					<use xlink:href="#SVGID_17_"  overflow="visible"/>
				</clipPath>
			</g>
			<g enable-background="new    ">
				<defs>
					<path id="SVGID_19_" enable-background="new    " d="M-53.8,837.3l1.1,8.6c0,0,0,0,0,0c0,0-0.1,0-0.1,0c0,0-0.1-0.1-0.2-0.1
						c-0.1,0-0.1-0.1-0.2-0.1l-1.1-8.6c0.1,0.1,0.1,0.1,0.2,0.1c0.1,0,0.1,0.1,0.2,0.1S-53.8,837.3-53.8,837.3
						C-53.8,837.3-53.8,837.3-53.8,837.3z"/>
				</defs>
				<clipPath id="SVGID_20_">
					<use xlink:href="#SVGID_19_"  overflow="visible"/>
				</clipPath>
			</g>
			<g enable-background="new    ">
				<defs>
					<path id="SVGID_21_" enable-background="new    " d="M-36.9,845.6c-0.2,0.1-0.4,0.2-0.6,0.4c-0.2,0.1-0.4,0.2-0.7,0.3
						s-0.5,0.2-0.8,0.3s-0.6,0.2-0.8,0.2c-0.3-2.9-0.5-5.7-0.8-8.6c0.3-0.1,0.6-0.2,0.9-0.2c0.3-0.1,0.5-0.2,0.8-0.3
						c0.2-0.1,0.5-0.2,0.7-0.3c0.2-0.1,0.4-0.2,0.6-0.4c0.1-0.1,0.3-0.2,0.4-0.3c0.1-0.1,0.2-0.2,0.4-0.3c0.1-0.1,0.2-0.2,0.3-0.3
						s0.2-0.2,0.3-0.4c0.1-0.2,0.3-0.4,0.4-0.6c0.1-0.2,0.3-0.4,0.4-0.7s0.3-0.5,0.4-0.8c0.1-0.3,0.2-0.6,0.4-1
						c0.1-0.2,0.1-0.4,0.2-0.6c0.1-0.2,0.1-0.5,0.2-0.7c0.1-0.3,0.1-0.5,0.2-0.9c0.1-0.3,0.1-0.6,0.2-1c0.1-0.3,0.1-0.7,0.2-1.1
						c0.1-0.4,0.1-0.8,0.2-1.2s0.1-0.8,0.1-1.3c0-0.4,0.1-0.9,0.1-1.3c0.1-0.9,0.1-1.9,0.2-2.9c0.1-1,0.1-2,0.1-3.1
						c0-1.1,0.1-2.2,0.1-3.3c0-1.1,0-2.3,0-3.5c0.2,3,0.4,6,0.7,9.1c0,1.2,0,2.3,0,3.4c0,1.1,0,2.2-0.1,3.3c0,1.1-0.1,2.1-0.1,3.1
						c-0.1,1-0.1,1.9-0.2,2.8c0,0.4-0.1,0.9-0.1,1.3c0,0.4-0.1,0.8-0.1,1.2c0,0.4-0.1,0.8-0.2,1.1c-0.1,0.4-0.1,0.7-0.2,1.1
						c-0.1,0.3-0.1,0.7-0.2,0.9c-0.1,0.3-0.1,0.6-0.2,0.8c-0.1,0.3-0.1,0.5-0.2,0.7c-0.1,0.2-0.1,0.4-0.2,0.6
						c-0.1,0.3-0.2,0.7-0.4,0.9c-0.1,0.3-0.3,0.5-0.4,0.8c-0.1,0.2-0.3,0.5-0.4,0.7s-0.3,0.4-0.4,0.6c-0.1,0.1-0.2,0.2-0.3,0.4
						c-0.1,0.1-0.2,0.2-0.3,0.3c-0.1,0.1-0.2,0.2-0.4,0.3S-36.8,845.6-36.9,845.6z"/>
				</defs>
				<clipPath id="SVGID_22_">
					<use xlink:href="#SVGID_21_"  overflow="visible"/>
				</clipPath>
			</g>
			<g enable-background="new    ">
				<defs>
					<path id="SVGID_23_" enable-background="new    " d="M-43.8,847.3c0-0.3-0.1-0.6-0.1-0.9c-0.1-1.4-0.3-2.7-0.4-4.1
						c0-0.2,0-0.4-0.1-0.5c-0.1-0.7-0.1-1.4-0.2-2.1c0-0.3-0.1-0.7-0.1-1c0.4,0,0.7,0,1.1,0c0.4,0,0.7,0,1-0.1c0.3,0,0.7-0.1,1-0.1
						s0.6-0.1,0.9-0.2c0.3,2.9,0.5,5.7,0.8,8.6c-0.3,0.1-0.6,0.1-0.9,0.2c-0.3,0.1-0.6,0.1-1,0.1c-0.3,0-0.7,0.1-1,0.1
						C-43,847.2-43.4,847.3-43.8,847.3z"/>
				</defs>
				<clipPath id="SVGID_24_">
					<use xlink:href="#SVGID_23_"  overflow="visible"/>
				</clipPath>
			</g>
			<g enable-background="new    ">
				<defs>
					<path id="SVGID_25_" enable-background="new    " d="M-43.8,847.3c-0.8,0-1.6,0-2.5-0.1c-0.8-0.1-1.6-0.2-2.4-0.3
						c-0.8-0.1-1.5-0.3-2.2-0.4c-0.7-0.2-1.3-0.3-1.8-0.5l-1.1-8.6c0.6,0.2,1.2,0.3,1.9,0.5c0.7,0.2,1.4,0.3,2.2,0.4
						c0.8,0.1,1.6,0.2,2.4,0.3c0.8,0.1,1.7,0.1,2.5,0.1C-44.4,841.5-44.1,844.4-43.8,847.3c-0.3-2.9-0.6-5.7-0.9-8.6c0,0,0,0,0,0
						s0,0,0,0s0,0,0,0c0,0,0,0,0,0c0,0,0,0,0,0s0,0,0,0s0,0,0,0c0,0,0,0,0,0C-44.4,841.5-44.1,844.4-43.8,847.3
						C-43.8,847.3-43.8,847.3-43.8,847.3C-43.8,847.3-43.8,847.3-43.8,847.3C-43.8,847.3-43.8,847.3-43.8,847.3
						C-43.8,847.3-43.8,847.3-43.8,847.3z"/>
				</defs>
				<clipPath id="SVGID_26_">
					<use xlink:href="#SVGID_25_"  overflow="visible"/>
				</clipPath>
			</g>
			<g>
				<path fill="#C2000E" d="M-27.3,752.5c1,0,2,0.2,2.9,0.6c0.9,0.4,1.7,0.9,2.4,1.6c0.7,0.7,1.2,1.4,1.6,2.3
					c0.4,0.9,0.6,1.8,0.6,2.8c0,0.4,0,0.9,0,1.4c0,0.5,0,1.1,0,1.7c0,0.6,0,1.3,0.1,2c0,0.7,0.1,1.5,0.1,2.2c0,0.1,0,0.2,0,0.3
					c0,0.1,0,0.2,0,0.3c0,0.1,0,0.2,0,0.3s0,0.2,0,0.3c0,0.9,0.1,1.9,0.2,2.9c0.1,1,0.1,2.1,0.2,3.2c0.1,1.1,0.1,2.2,0.2,3.4
					c0.1,1.1,0.1,2.3,0.2,3.5c0.1,2.4,0.3,4.9,0.4,7.4c0.1,2.5,0.2,5.1,0.3,7.8c0.1,2.6,0.2,5.2,0.2,7.8c0.1,2.6,0.1,5.2,0.1,7.7
					c0,0.9,0,1.9,0,2.8c0,0.9,0,1.8,0,2.7c0,0.9,0,1.8-0.1,2.7c0,0.9-0.1,1.7-0.1,2.6c0,0.8-0.1,1.7-0.2,2.5
					c-0.1,0.8-0.1,1.6-0.2,2.4c-0.1,0.8-0.2,1.5-0.3,2.3c-0.1,0.7-0.2,1.5-0.3,2.2c-0.1,0.5-0.2,0.9-0.3,1.4
					c-0.1,0.5-0.2,0.9-0.3,1.3c-0.1,0.4-0.2,0.9-0.3,1.3c-0.1,0.4-0.2,0.9-0.4,1.3c-0.3,0.8-0.6,1.6-0.9,2.4
					c-0.4,0.8-0.7,1.5-1.2,2.3c-0.4,0.7-0.9,1.4-1.4,2.1c-0.5,0.7-1,1.3-1.5,1.9c-0.5,0.6-1.1,1.1-1.7,1.6c-0.6,0.5-1.2,1-1.8,1.4
					c-0.6,0.4-1.3,0.8-1.9,1.2c-0.6,0.4-1.3,0.7-2,1c-0.4,0.2-0.9,0.4-1.3,0.5c-0.4,0.2-0.9,0.3-1.3,0.4c-0.4,0.1-0.9,0.3-1.3,0.4
					c-0.4,0.1-0.9,0.2-1.3,0.3c-0.6,0.1-1.2,0.2-1.7,0.3c-0.6,0.1-1.1,0.1-1.7,0.2c-0.6,0.1-1.1,0.1-1.7,0.1c-0.5,0-1.1,0-1.6,0
					c-1.3,0-2.7-0.1-3.9-0.2c-1.2-0.1-2.4-0.3-3.6-0.5c-1.1-0.2-2.2-0.4-3.1-0.6c-1-0.2-1.9-0.5-2.7-0.7c-0.6-0.2-1.1-0.4-1.7-0.6
					c-0.5-0.2-1-0.5-1.5-0.7c-0.5-0.3-1-0.6-1.4-0.9c-0.4-0.3-0.9-0.6-1.3-0.9c-0.4-0.3-0.8-0.7-1.2-1c-0.4-0.3-0.7-0.7-1.1-1.1
					c-0.3-0.4-0.7-0.7-1-1.1c-0.3-0.4-0.6-0.8-0.9-1.1c-0.6-0.8-1.2-1.6-1.7-2.4c-0.5-0.8-1-1.6-1.5-2.5c-0.5-0.8-0.9-1.7-1.3-2.5
					c-0.4-0.8-0.8-1.7-1.2-2.5c-0.2-0.6-0.5-1.1-0.7-1.7c-0.2-0.6-0.4-1.1-0.6-1.7c-0.2-0.6-0.4-1.1-0.5-1.6
					c-0.2-0.5-0.3-1.1-0.4-1.6c-0.1-0.3-0.1-0.6-0.2-0.9c-0.1-0.3-0.1-0.6-0.2-0.9s-0.1-0.6-0.2-0.9c0-0.3-0.1-0.6-0.1-0.9
					c0-0.2,0-0.3,0-0.5c0-0.1,0-0.3,0-0.4c0-0.1,0-0.3,0-0.4c0-0.1,0-0.3,0-0.4c0-0.5,0-0.9,0.1-1.4c0-0.4,0.1-0.9,0.2-1.3
					c0.1-0.4,0.2-0.8,0.3-1.3c0.1-0.4,0.2-0.8,0.3-1.2s0.3-0.8,0.4-1.1s0.3-0.7,0.4-1.1c0.2-0.4,0.3-0.7,0.5-1
					c0.2-0.3,0.3-0.7,0.5-1c0.3-0.6,0.7-1.3,1.1-1.9c0.4-0.6,0.7-1.2,1.1-1.7c0.4-0.5,0.7-1.1,1.1-1.6c0.4-0.5,0.7-1,1.1-1.4
					c0.2-0.3,0.4-0.6,0.7-0.9c0.2-0.3,0.4-0.5,0.6-0.8s0.4-0.5,0.5-0.7c0.2-0.2,0.3-0.4,0.4-0.6c0.1-0.1,0.1-0.2,0.2-0.2
					s0.1-0.1,0.2-0.2c0-0.1,0.1-0.1,0.1-0.2s0.1-0.1,0.1-0.1c0.3-0.6,0.8-1.2,1.2-1.7c0.5-0.5,1-0.9,1.6-1.3
					c0.6-0.3,1.2-0.6,1.9-0.8c0.6-0.2,1.3-0.3,2-0.3c0.3,0,0.6,0,0.8,0c0.3,0,0.6,0.1,0.8,0.1c0.3,0.1,0.6,0.1,0.8,0.2
					s0.5,0.2,0.8,0.3c0.1,0,0.2,0.1,0.2,0.1c0.1,0,0.2,0.1,0.2,0.1c0.1,0,0.2,0.1,0.2,0.1c0.1,0,0.2,0.1,0.2,0.1
					c0.7,0.5,1.4,1.1,1.9,1.9c0.5,0.7,0.9,1.5,1.1,2.3c0.2,0.8,0.3,1.7,0.2,2.6c-0.1,0.9-0.3,1.7-0.8,2.6c-0.1,0.1-0.2,0.3-0.2,0.4
					s-0.2,0.3-0.2,0.4c-0.1,0.1-0.1,0.2-0.2,0.3c-0.1,0.1-0.1,0.2-0.2,0.3c-0.1,0.1-0.1,0.2-0.2,0.3s-0.1,0.2-0.2,0.3
					s-0.1,0.2-0.2,0.3c-0.1,0.1-0.1,0.2-0.2,0.3c-0.1,0.2-0.3,0.4-0.4,0.6c-0.1,0.2-0.3,0.4-0.4,0.6c-0.2,0.2-0.3,0.4-0.5,0.6
					c-0.2,0.2-0.3,0.4-0.5,0.6c-0.3,0.4-0.6,0.8-0.9,1.2c-0.3,0.4-0.6,0.8-0.9,1.2c-0.3,0.4-0.6,0.8-0.8,1.2
					c-0.3,0.4-0.5,0.8-0.7,1.2c-0.1,0.3-0.3,0.5-0.4,0.7c-0.1,0.2-0.2,0.5-0.3,0.7c-0.1,0.2-0.2,0.4-0.2,0.6
					c-0.1,0.2-0.1,0.3-0.1,0.5c0,0.1,0,0.2-0.1,0.2c0,0.1,0,0.1,0,0.2c0,0,0,0.1,0,0.1c0,0,0,0.1,0,0.1c0,0.1,0,0.3,0.1,0.5
					c0,0.2,0.1,0.4,0.1,0.6s0.1,0.4,0.1,0.7c0.1,0.2,0.1,0.5,0.2,0.7c0.1,0.3,0.1,0.5,0.2,0.8c0.1,0.3,0.2,0.5,0.3,0.8
					c0.1,0.3,0.2,0.6,0.3,0.9c0.1,0.3,0.2,0.6,0.3,0.9c0.2,0.6,0.5,1.2,0.8,1.8c0.3,0.6,0.6,1.2,0.9,1.7c0.3,0.6,0.6,1.1,1,1.6
					c0.3,0.5,0.7,1,1,1.4c0.2,0.3,0.4,0.6,0.6,0.8c0.2,0.3,0.4,0.5,0.6,0.7c0.2,0.2,0.4,0.4,0.6,0.5c0.2,0.2,0.3,0.3,0.5,0.4
					c0.1,0.1,0.1,0.1,0.2,0.1c0.1,0,0.1,0.1,0.2,0.1s0.1,0,0.1,0c0,0,0,0,0,0c0.6,0.2,1.2,0.3,1.9,0.5c0.7,0.2,1.4,0.3,2.2,0.4
					c0.8,0.1,1.6,0.2,2.4,0.3c0.8,0.1,1.7,0.1,2.5,0.1c0.4,0,0.8,0,1.1,0c0.4,0,0.7,0,1.1-0.1c0.3,0,0.7-0.1,1-0.1s0.6-0.1,0.9-0.2
					c0.3-0.1,0.6-0.2,0.9-0.2c0.3-0.1,0.5-0.2,0.8-0.3c0.2-0.1,0.5-0.2,0.7-0.3c0.2-0.1,0.4-0.2,0.6-0.4c0.1-0.1,0.3-0.2,0.4-0.3
					c0.1-0.1,0.2-0.2,0.4-0.3c0.1-0.1,0.2-0.2,0.3-0.3s0.2-0.2,0.3-0.4c0.1-0.2,0.3-0.4,0.4-0.6c0.1-0.2,0.3-0.4,0.4-0.7
					s0.3-0.5,0.4-0.8c0.1-0.3,0.2-0.6,0.4-1c0.1-0.2,0.1-0.4,0.2-0.6c0.1-0.2,0.1-0.5,0.2-0.7c0.1-0.3,0.1-0.5,0.2-0.9
					c0.1-0.3,0.1-0.6,0.2-1c0.1-0.3,0.1-0.7,0.2-1.1c0.1-0.4,0.1-0.8,0.2-1.2s0.1-0.8,0.1-1.3c0-0.4,0.1-0.9,0.1-1.3
					c0.1-0.9,0.1-1.9,0.2-2.9c0.1-1,0.1-2,0.1-3.1c0-1.1,0.1-2.2,0.1-3.3c0-1.1,0-2.3,0-3.5c0-1.8,0-3.6,0-5.5
					c0-1.9-0.1-3.8-0.1-5.7c-0.1-1.9-0.1-3.8-0.2-5.7c-0.1-1.9-0.2-3.8-0.2-5.7c-0.1-1.8-0.2-3.6-0.3-5.4c-0.1-1.8-0.2-3.5-0.3-5.1
					c-0.1-1.7-0.2-3.3-0.3-4.8c-0.1-1.5-0.2-3-0.2-4.4c0-0.1,0-0.1,0-0.2c0-0.1,0-0.1,0-0.2c0-0.1,0-0.1,0-0.2c0-0.1,0-0.1,0-0.2
					c0-0.2,0-0.3,0-0.5c0-0.2,0-0.3,0-0.5c0-0.2,0-0.3,0-0.5c0-0.2,0-0.3,0-0.5c0-0.7-0.1-1.4-0.1-2.1c0-0.7-0.1-1.3-0.1-1.9
					c0-0.6,0-1.2,0-1.7c0-0.5,0-1.1,0-1.5c0-1,0.2-2,0.6-2.8c0.4-0.9,0.9-1.7,1.6-2.3c0.7-0.7,1.5-1.2,2.4-1.6
					C-29.4,752.7-28.4,752.5-27.3,752.5z"/>
			</g>
			<g>
				<path fill="#C2000E" d="M-72.5,767.1l0.1-14.6h45.1c-1,0-2,0.2-2.9,0.6c-0.9,0.4-1.7,0.9-2.4,1.6c-0.7,0.7-1.2,1.4-1.6,2.3
					c-0.4,0.9-0.6,1.8-0.6,2.8c0,0.5,0,1,0,1.5c0,0.5,0,1.1,0,1.7c0,0.6,0,1.2,0.1,1.9c0,0.7,0.1,1.4,0.1,2.1H-72.5z"/>
			</g>
			<g>
				<polygon fill="#7A0009" points="76.9,759.8 75.4,769.9 13.8,791.9 14.1,782.2 				"/>
			</g>
			<g>
				<path fill="#C2000E" d="M14.1,737.4l62.9,22.4l-62.8,22.4l0-15.1l0-14.6L14.1,737.4z M29,758.2l0,3.1l4.3-1.5L29,758.2"/>
			</g>
			<g>
				<polygon fill="#730008" points="6.9,796.3 6.7,805.7 5.8,805.7 5.9,796.3 				"/>
			</g>
			<g>
				<rect x="5.9" y="793.4" fill="#C2000E" width="1" height="2.9"/>
			</g>
			<g enable-background="new    ">
				<defs>
					<path id="SVGID_27_" enable-background="new    " d="M-0.5,850.4c-0.2,0.2-0.4,0.5-0.5,0.7c-0.2,0.2-0.3,0.5-0.4,0.7
						c-0.1,0.3-0.2,0.5-0.3,0.8c-0.1,0.3-0.2,0.5-0.2,0.8l0-8.4c0.1-0.3,0.1-0.6,0.2-0.8c0.1-0.3,0.2-0.5,0.3-0.8
						c0.1-0.3,0.3-0.5,0.4-0.8c0.2-0.2,0.4-0.5,0.6-0.7c0.2-0.2,0.4-0.4,0.6-0.7c0.2-0.3,0.5-0.6,0.8-0.9c0.3-0.3,0.6-0.7,0.9-1.1
						c0.3-0.4,0.6-0.8,1-1.2c0.3-0.4,0.7-0.9,1.1-1.4c0.4-0.5,0.8-1,1.2-1.5c0.4-0.5,0.8-1,1.2-1.6c0.4-0.5,0.9-1.1,1.3-1.7
						c0.4-0.5,0.8-1.1,1.3-1.6c0.4-0.5,0.9-1.1,1.3-1.7c0.4-0.6,0.9-1.1,1.4-1.7c0.5-0.6,0.9-1.1,1.4-1.7l-0.3,8.8
						c-0.5,0.6-0.9,1.1-1.4,1.7c-0.4,0.6-0.9,1.1-1.3,1.7c-0.4,0.5-0.9,1.1-1.3,1.6c-0.4,0.5-0.8,1.1-1.3,1.6
						c-0.4,0.6-0.9,1.1-1.3,1.6c-0.4,0.5-0.8,1-1.2,1.5c-0.4,0.5-0.8,1-1.1,1.4c-0.4,0.5-0.7,0.9-1.1,1.3c-0.3,0.4-0.7,0.8-1,1.2
						c-0.3,0.4-0.6,0.7-0.9,1.1c-0.3,0.3-0.5,0.6-0.7,0.9C-0.1,850-0.3,850.2-0.5,850.4z"/>
				</defs>
				<clipPath id="SVGID_28_">
					<use xlink:href="#SVGID_27_"  overflow="visible"/>
				</clipPath>
				<g clip-path="url(#SVGID_28_)" enable-background="new    ">
					<path fill="#720008" d="M12.9,825.2l-0.3,8.8c-0.4,0.5-0.8,1-1.2,1.4c-0.4,0.5-0.8,1-1.1,1.4c-0.4,0.5-0.7,0.9-1.1,1.4
						c-0.4,0.5-0.7,0.9-1.1,1.4l0.2-8.7c0.4-0.5,0.7-0.9,1.1-1.4c0.4-0.5,0.8-0.9,1.1-1.4c0.4-0.5,0.8-1,1.2-1.4
						C12.1,826.1,12.5,825.7,12.9,825.2"/>
					<path fill="#770009" d="M8.3,830.9l-0.2,8.7c-0.1,0.1-0.1,0.2-0.2,0.2c-0.1,0.1-0.1,0.2-0.2,0.2c-0.1,0.1-0.1,0.2-0.2,0.2
						c-0.1,0.1-0.1,0.2-0.2,0.2l0.1-8.7c0.1-0.1,0.1-0.2,0.2-0.2c0.1-0.1,0.1-0.2,0.2-0.2c0.1-0.1,0.1-0.2,0.2-0.2
						S8.2,831,8.3,830.9"/>
					<path fill="#720008" d="M7.6,831.8l-0.1,8.7c0,0,0,0,0,0c0,0,0,0,0,0s0,0,0,0s0,0,0,0c0,0,0,0,0,0c0,0,0,0,0,0c0,0,0,0,0,0
						c0,0,0,0,0,0l0.1-8.7c0,0,0,0,0,0c0,0,0,0,0,0C7.5,831.9,7.5,831.9,7.6,831.8C7.5,831.9,7.5,831.9,7.6,831.8
						C7.5,831.8,7.5,831.8,7.6,831.8C7.5,831.8,7.5,831.8,7.6,831.8C7.5,831.8,7.5,831.8,7.6,831.8C7.6,831.8,7.6,831.8,7.6,831.8"
						/>
					<path fill="#770009" d="M7.4,832l-0.1,8.7c-0.2,0.2-0.3,0.4-0.5,0.6c-0.2,0.2-0.3,0.4-0.5,0.6c-0.2,0.2-0.3,0.4-0.5,0.6
						c-0.2,0.2-0.3,0.4-0.5,0.6l0.1-8.6c0.2-0.2,0.3-0.4,0.5-0.6c0.2-0.2,0.3-0.4,0.5-0.6c0.2-0.2,0.3-0.4,0.5-0.6
						C7.1,832.5,7.2,832.2,7.4,832"/>
					<path fill="#720008" d="M5.4,834.5l-0.1,8.6c-0.2,0.3-0.5,0.6-0.7,0.9c-0.2,0.3-0.5,0.6-0.7,0.9c-0.2,0.3-0.4,0.6-0.7,0.8
						c-0.2,0.3-0.4,0.5-0.6,0.8c-0.3,0.4-0.7,0.8-1,1.2c-0.3,0.4-0.6,0.7-0.9,1.1c-0.3,0.3-0.5,0.6-0.7,0.9
						c-0.2,0.3-0.4,0.5-0.6,0.7c0,0,0,0-0.1,0.1c0,0,0,0-0.1,0.1c0,0,0,0,0,0.1c0,0,0,0,0,0.1l0-8.5c0,0,0,0,0.1-0.1
						c0,0,0,0,0.1-0.1c0,0,0,0,0.1-0.1c0,0,0,0,0.1-0.1c0.2-0.2,0.4-0.4,0.6-0.7c0.2-0.3,0.5-0.6,0.8-0.9c0.3-0.3,0.6-0.7,0.9-1.1
						c0.3-0.4,0.6-0.8,1-1.2c0.2-0.3,0.4-0.5,0.6-0.8c0.2-0.3,0.4-0.6,0.7-0.8c0.2-0.3,0.5-0.6,0.7-0.9C5,835.1,5.2,834.8,5.4,834.5
						"/>
					<path fill="#770009" d="M-0.7,842.1l0,8.5c-0.1,0.1-0.2,0.2-0.3,0.3c-0.1,0.1-0.2,0.2-0.2,0.4c-0.1,0.1-0.1,0.2-0.2,0.4
						c-0.1,0.1-0.1,0.2-0.2,0.4l0-8.5c0.1-0.1,0.1-0.3,0.2-0.4c0.1-0.1,0.1-0.2,0.2-0.4c0.1-0.1,0.2-0.2,0.2-0.4
						C-0.9,842.4-0.8,842.3-0.7,842.1"/>
					<path fill="#7B0009" d="M-1.6,843.6l0,8.5c-0.1,0.1-0.1,0.2-0.1,0.3c0,0.1-0.1,0.2-0.1,0.3c0,0.1-0.1,0.2-0.1,0.3
						c0,0.1-0.1,0.2-0.1,0.3l0-8.4c0-0.1,0.1-0.2,0.1-0.4c0-0.1,0.1-0.2,0.1-0.4c0-0.1,0.1-0.2,0.1-0.3
						C-1.7,843.8-1.7,843.7-1.6,843.6"/>
				</g>
			</g>
			<g enable-background="new    ">
				<defs>
					<path id="SVGID_29_" enable-background="new    " d="M-2.3,855.1l-0.1-8.4c0,0.5,0.1,1,0.2,1.5c0.1,0.5,0.3,1,0.5,1.5
						c0.2,0.5,0.5,0.9,0.8,1.4c0.3,0.4,0.7,0.8,1.1,1.2c0.4,0.3,0.7,0.6,1.1,0.8c0.4,0.2,0.8,0.4,1.2,0.6c0.4,0.1,0.8,0.3,1.3,0.3
						c0.4,0.1,0.9,0.1,1.3,0.1c0.4,0,0.8,0,1.1-0.1c0.4-0.1,0.7-0.1,1.1-0.3c0.4-0.1,0.7-0.3,1.1-0.4c0.3-0.2,0.7-0.4,1-0.6
						c0.1-0.1,0.3-0.2,0.4-0.3c0.1-0.1,0.2-0.2,0.4-0.3c0.1-0.1,0.2-0.2,0.3-0.3c0.1-0.1,0.2-0.2,0.3-0.4c0.2-0.2,0.4-0.5,0.6-0.7
						c0.2-0.2,0.4-0.5,0.6-0.8c0.2-0.3,0.4-0.5,0.7-0.8c0.2-0.3,0.5-0.6,0.7-0.9c0.4-0.6,0.9-1.1,1.4-1.8c0.5-0.6,1-1.3,1.5-1.9
						c0.5-0.7,1.1-1.4,1.6-2.1c0.6-0.7,1.2-1.5,1.7-2.2c0.9-1.1,1.8-2.3,2.8-3.5c0.9-1.2,1.9-2.4,2.9-3.6c1-1.2,2-2.4,2.9-3.6
						c1-1.2,1.9-2.3,2.9-3.4c0.5-0.5,0.9-1.1,1.4-1.6c0.5-0.5,0.9-1,1.4-1.5c0.5-0.5,0.9-1,1.3-1.4c0.4-0.5,0.9-0.9,1.3-1.3
						c0.4-0.4,0.8-0.8,1.2-1.2c0.4-0.4,0.7-0.7,1.1-1c0.3-0.3,0.7-0.6,1-0.8c0.3-0.2,0.6-0.5,0.8-0.6c0.6-0.5,1.3-1,1.9-1.4
						c0.6-0.4,1.2-0.9,1.8-1.3c0.6-0.4,1.1-0.8,1.7-1.1c0.5-0.3,1-0.6,1.5-0.9c0.2-0.1,0.3-0.2,0.5-0.2c0.2-0.1,0.3-0.1,0.4-0.2
						s0.3-0.1,0.4-0.2c0.1-0.1,0.3-0.1,0.4-0.2c0.1,0,0.1,0,0.2-0.1c0.1,0,0.1,0,0.2-0.1s0.1,0,0.2-0.1c0.1,0,0.1,0,0.1-0.1
						c0,0,0.1,0,0.1,0s0.1,0,0.1,0c0,0,0.1,0,0.1,0s0.1,0,0.1,0.1l-1,9.1c0,0-0.1,0-0.1-0.1c0,0-0.1,0-0.1,0s-0.1,0-0.1,0
						c0,0-0.1,0-0.1,0c0,0-0.1,0-0.1,0.1c-0.1,0-0.1,0-0.2,0.1c-0.1,0-0.1,0-0.2,0.1c-0.1,0-0.1,0-0.2,0.1c-0.1,0-0.2,0.1-0.4,0.2
						c-0.1,0.1-0.3,0.1-0.4,0.2c-0.1,0.1-0.3,0.1-0.4,0.2s-0.3,0.2-0.5,0.2c-0.5,0.3-1,0.5-1.5,0.9c-0.5,0.3-1.1,0.7-1.6,1.1
						c-0.6,0.4-1.2,0.8-1.8,1.2c-0.6,0.4-1.2,0.9-1.9,1.4c-0.2,0.2-0.5,0.4-0.8,0.6c-0.3,0.2-0.6,0.5-0.9,0.8
						c-0.3,0.3-0.7,0.6-1.1,1c-0.4,0.4-0.8,0.7-1.2,1.2c-0.4,0.4-0.8,0.8-1.2,1.3c-0.4,0.4-0.9,0.9-1.3,1.4c-0.4,0.5-0.9,1-1.3,1.5
						c-0.5,0.5-0.9,1-1.4,1.6c-0.9,1.1-1.9,2.2-2.8,3.3c-1,1.1-1.9,2.3-2.9,3.5c-1,1.2-1.9,2.3-2.8,3.5c-0.9,1.2-1.8,2.3-2.7,3.4
						c-0.6,0.7-1.2,1.5-1.7,2.2c-0.6,0.7-1.1,1.4-1.6,2c-0.5,0.7-1,1.3-1.5,1.9c-0.5,0.6-0.9,1.2-1.4,1.7c-0.2,0.3-0.5,0.6-0.7,0.9
						c-0.2,0.3-0.5,0.6-0.7,0.8c-0.2,0.3-0.4,0.5-0.6,0.8c-0.2,0.2-0.4,0.5-0.6,0.7c-0.1,0.1-0.2,0.2-0.3,0.3
						c-0.1,0.1-0.2,0.2-0.3,0.3s-0.2,0.2-0.4,0.3c-0.1,0.1-0.2,0.2-0.4,0.3c-0.3,0.2-0.6,0.4-1,0.6c-0.3,0.2-0.7,0.3-1,0.4
						c-0.4,0.1-0.7,0.2-1.1,0.2c-0.4,0.1-0.7,0.1-1.1,0.1c-0.4,0-0.8,0-1.3-0.1c-0.4-0.1-0.8-0.2-1.2-0.3c-0.4-0.1-0.8-0.3-1.2-0.5
						c-0.4-0.2-0.7-0.5-1.1-0.8c-0.4-0.4-0.8-0.7-1.1-1.2c-0.3-0.4-0.6-0.9-0.8-1.3c-0.2-0.5-0.4-1-0.5-1.5
						C-2.2,856.1-2.2,855.6-2.3,855.1z"/>
				</defs>
				<clipPath id="SVGID_30_">
					<use xlink:href="#SVGID_29_"  overflow="visible"/>
				</clipPath>
				<g clip-path="url(#SVGID_30_)" enable-background="new    ">
					<path fill="#720008" d="M50.5,811l-1,9.1c0,0-0.1,0-0.1-0.1c0,0-0.1,0-0.1,0s-0.1,0-0.1,0c0,0-0.1,0-0.1,0c0,0-0.1,0-0.1,0.1
						c-0.1,0-0.1,0-0.2,0.1c-0.1,0-0.1,0-0.2,0.1c-0.1,0-0.1,0-0.2,0.1c-0.1,0-0.2,0.1-0.4,0.2c-0.1,0.1-0.3,0.1-0.4,0.2
						c-0.1,0.1-0.3,0.1-0.4,0.2s-0.3,0.2-0.5,0.2c-0.5,0.3-1,0.5-1.5,0.9c-0.5,0.3-1.1,0.7-1.6,1.1c-0.6,0.4-1.2,0.8-1.8,1.2
						c-0.6,0.4-1.2,0.9-1.9,1.4c-0.2,0.2-0.5,0.4-0.8,0.6c-0.3,0.2-0.6,0.5-0.9,0.8c-0.3,0.3-0.7,0.6-1.1,1
						c-0.4,0.4-0.8,0.7-1.2,1.2c-0.4,0.4-0.8,0.8-1.2,1.3c-0.4,0.4-0.9,0.9-1.3,1.4c-0.4,0.5-0.9,1-1.3,1.5c-0.5,0.5-0.9,1-1.4,1.6
						c-0.9,1.1-1.9,2.2-2.8,3.3c-1,1.1-1.9,2.3-2.9,3.5c-1,1.2-1.9,2.3-2.8,3.5c-0.9,1.2-1.8,2.3-2.7,3.4c0,0,0,0,0,0s0,0,0,0
						c0,0,0,0,0,0c0,0,0,0,0,0l0.4-8.5c0,0,0,0,0,0c0,0,0,0,0,0c0,0,0,0,0,0c0,0,0,0,0,0c0.9-1.1,1.8-2.3,2.8-3.5
						c0.9-1.2,1.9-2.4,2.9-3.6c1-1.2,2-2.4,2.9-3.6c1-1.2,1.9-2.3,2.9-3.4c0.5-0.5,0.9-1.1,1.4-1.6c0.5-0.5,0.9-1,1.4-1.5
						c0.5-0.5,0.9-1,1.3-1.4c0.4-0.5,0.9-0.9,1.3-1.3c0.4-0.4,0.8-0.8,1.2-1.2c0.4-0.4,0.7-0.7,1.1-1c0.3-0.3,0.7-0.6,1-0.8
						c0.3-0.2,0.6-0.5,0.8-0.6c0.6-0.5,1.3-1,1.9-1.4c0.6-0.4,1.2-0.9,1.8-1.3c0.6-0.4,1.1-0.8,1.7-1.1c0.5-0.3,1-0.6,1.5-0.9
						c0.2-0.1,0.3-0.2,0.5-0.2c0.2-0.1,0.3-0.1,0.4-0.2s0.3-0.1,0.4-0.2c0.1-0.1,0.3-0.1,0.4-0.2c0.1,0,0.1,0,0.2-0.1
						c0.1,0,0.1,0,0.2-0.1s0.1,0,0.2-0.1c0.1,0,0.1,0,0.1-0.1c0,0,0.1,0,0.1,0s0.1,0,0.1,0c0,0,0.1,0,0.1,0S50.4,811,50.5,811"/>
					<path fill="#770009" d="M19.7,840.4l-0.4,8.5c-0.4,0.5-0.8,1-1.1,1.4c-0.4,0.5-0.7,0.9-1.1,1.4c-0.4,0.4-0.7,0.9-1,1.3
						c-0.3,0.4-0.7,0.8-1,1.2l0.3-8.4c0.3-0.4,0.7-0.8,1-1.3c0.3-0.4,0.7-0.9,1.1-1.3c0.4-0.5,0.7-0.9,1.1-1.4
						C19,841.4,19.4,840.9,19.7,840.4"/>
					<path fill="#720008" d="M15.5,845.9l-0.3,8.4c-0.2,0.2-0.3,0.4-0.5,0.6c-0.2,0.2-0.3,0.4-0.5,0.6c-0.2,0.2-0.3,0.4-0.5,0.6
						c-0.1,0.2-0.3,0.4-0.4,0.6c-0.2,0.3-0.5,0.6-0.7,0.9c-0.2,0.3-0.5,0.6-0.7,0.8c-0.2,0.3-0.4,0.5-0.6,0.8
						c-0.2,0.2-0.4,0.5-0.6,0.7c-0.1,0.1-0.2,0.2-0.3,0.3c-0.1,0.1-0.2,0.2-0.3,0.3s-0.2,0.2-0.4,0.3c-0.1,0.1-0.2,0.2-0.4,0.3
						c-0.3,0.2-0.6,0.4-1,0.6c-0.3,0.2-0.7,0.3-1,0.4c-0.4,0.1-0.7,0.2-1.1,0.2c-0.4,0.1-0.7,0.1-1.1,0.1c-0.4,0-0.8,0-1.3-0.1
						c-0.4-0.1-0.8-0.2-1.2-0.3c-0.4-0.1-0.8-0.3-1.2-0.5c-0.4-0.2-0.7-0.5-1.1-0.8c-0.4-0.4-0.8-0.7-1.1-1.2
						c-0.3-0.4-0.6-0.9-0.8-1.3c-0.2-0.5-0.4-1-0.5-1.5c-0.1-0.5-0.2-1-0.2-1.5l-0.1-8.4c0,0.5,0.1,1,0.2,1.5c0.1,0.5,0.3,1,0.5,1.5
						c0.2,0.5,0.5,0.9,0.8,1.4c0.3,0.4,0.7,0.8,1.1,1.2c0.4,0.3,0.7,0.6,1.1,0.8c0.4,0.2,0.8,0.4,1.2,0.6c0.4,0.1,0.8,0.3,1.3,0.3
						c0.4,0.1,0.9,0.1,1.3,0.1c0.4,0,0.8,0,1.1-0.1c0.4-0.1,0.7-0.1,1.1-0.3c0.4-0.1,0.7-0.3,1.1-0.4c0.3-0.2,0.7-0.4,1-0.6
						c0.1-0.1,0.3-0.2,0.4-0.3c0.1-0.1,0.2-0.2,0.4-0.3c0.1-0.1,0.2-0.2,0.3-0.3c0.1-0.1,0.2-0.2,0.3-0.4c0.2-0.2,0.4-0.5,0.6-0.7
						c0.2-0.2,0.4-0.5,0.6-0.8c0.2-0.3,0.4-0.5,0.7-0.8c0.2-0.3,0.5-0.6,0.7-0.9c0.1-0.2,0.3-0.4,0.5-0.6c0.2-0.2,0.3-0.4,0.5-0.6
						c0.2-0.2,0.3-0.4,0.5-0.6C15.1,846.3,15.3,846.1,15.5,845.9"/>
				</g>
			</g>
			<g enable-background="new    ">
				<defs>
					<path id="SVGID_31_" enable-background="new    " d="M48.3,820.3c-0.5,0.3-0.9,0.5-1.4,0.9c-0.5,0.3-1,0.7-1.6,1
						c-0.5,0.4-1.1,0.8-1.7,1.2c-0.6,0.4-1.2,0.9-1.8,1.3l0.8-9c0.6-0.5,1.2-0.9,1.8-1.3c0.6-0.4,1.2-0.8,1.7-1.2
						c0.6-0.4,1.1-0.7,1.6-1.1c0.5-0.3,1-0.6,1.5-0.9C49,814,48.6,817.6,48.3,820.3z"/>
				</defs>
				<clipPath id="SVGID_32_">
					<use xlink:href="#SVGID_31_"  overflow="visible"/>
				</clipPath>
				<g clip-path="url(#SVGID_32_)" enable-background="new    ">
					<path fill="#720008" d="M49.3,811.2l-1,9.1c-0.5,0.3-0.9,0.5-1.4,0.9c-0.5,0.3-1,0.7-1.6,1c-0.5,0.4-1.1,0.8-1.7,1.2
						c-0.6,0.4-1.2,0.9-1.8,1.3l0.8-9c0.6-0.5,1.2-0.9,1.8-1.3c0.6-0.4,1.2-0.8,1.7-1.2c0.6-0.4,1.1-0.7,1.6-1.1
						C48.4,811.8,48.9,811.5,49.3,811.2"/>
				</g>
			</g>
			<g>
				<path fill="#C2000E" d="M12.8,796.3l0,28.9c-0.5,0.6-0.9,1.1-1.4,1.7c-0.5,0.6-0.9,1.1-1.4,1.7c-0.4,0.6-0.9,1.1-1.3,1.7
					c-0.4,0.5-0.9,1.1-1.3,1.6c-0.4,0.6-0.9,1.1-1.3,1.7c-0.4,0.5-0.8,1.1-1.2,1.6c-0.4,0.5-0.8,1-1.2,1.5c-0.4,0.5-0.7,0.9-1.1,1.4
					c-0.3,0.4-0.7,0.8-1,1.2c-0.3,0.4-0.6,0.8-0.9,1.1c-0.3,0.3-0.5,0.6-0.8,0.9c-0.2,0.3-0.4,0.5-0.6,0.7c-0.2,0.2-0.4,0.5-0.6,0.7
					c-0.2,0.2-0.3,0.5-0.4,0.8c-0.1,0.3-0.2,0.5-0.3,0.8c-0.1,0.3-0.2,0.5-0.2,0.8l0-48.7h8h1H12.8z"/>
			</g>
			<g enable-background="new    ">
				<defs>
					<path id="SVGID_33_" enable-background="new    " d="M15.2,855.7C15.2,855.7,15.2,855.7,15.2,855.7
						C15.2,855.7,15.2,855.7,15.2,855.7C15.2,855.7,15.2,855.7,15.2,855.7C15.2,855.7,15.2,855.7,15.2,855.7c0-2.7,0.1-5.5,0.3-8.3
						c0,0,0,0,0,0c0,0,0,0,0,0c0,0,0,0,0,0c0,0,0,0,0,0c0.4-0.6,0.9-1.1,1.4-1.8c0.5-0.6,1-1.3,1.5-1.9c0.5-0.7,1.1-1.4,1.6-2.1
						c0.6-0.7,1.2-1.5,1.8-2.2c0.9-1.1,1.8-2.3,2.8-3.5c0.9-1.2,1.9-2.4,2.9-3.6c1-1.2,2-2.4,2.9-3.6c1-1.2,1.9-2.3,2.9-3.4
						c0.5-0.6,0.9-1.1,1.4-1.6c0.5-0.5,0.9-1,1.4-1.5c0.5-0.5,0.9-1,1.3-1.4c0.4-0.5,0.9-0.9,1.3-1.3c0.4-0.4,0.8-0.8,1.2-1.2
						c0.4-0.4,0.7-0.7,1.1-1c0.3-0.3,0.7-0.6,1-0.8c0.3-0.2,0.6-0.5,0.8-0.6l-0.8,9c-0.2,0.2-0.5,0.4-0.8,0.6
						c-0.3,0.2-0.6,0.5-0.9,0.8c-0.3,0.3-0.7,0.6-1.1,1c-0.4,0.4-0.8,0.7-1.2,1.2c-0.4,0.4-0.8,0.8-1.2,1.3
						c-0.4,0.5-0.9,0.9-1.3,1.4c-0.4,0.5-0.9,1-1.3,1.5c-0.5,0.5-0.9,1-1.4,1.6c-0.9,1.1-1.9,2.2-2.8,3.3c-1,1.1-1.9,2.3-2.9,3.5
						c-1,1.2-1.9,2.3-2.8,3.5c-0.9,1.2-1.8,2.3-2.7,3.4c-0.6,0.7-1.2,1.5-1.7,2.2c-0.6,0.7-1.1,1.4-1.6,2c-0.5,0.7-1,1.3-1.5,1.9
						C16.1,854.6,15.7,855.1,15.2,855.7z"/>
				</defs>
				<clipPath id="SVGID_34_">
					<use xlink:href="#SVGID_33_"  overflow="visible"/>
				</clipPath>
				<g clip-path="url(#SVGID_34_)" enable-background="new    ">
					<path fill="#720008" d="M42.7,815.7l-0.8,9c-0.2,0.2-0.5,0.4-0.8,0.6c-0.3,0.2-0.6,0.5-0.9,0.8c-0.3,0.3-0.7,0.6-1.1,1
						c-0.4,0.4-0.8,0.7-1.2,1.2c-0.4,0.4-0.8,0.8-1.2,1.3c-0.4,0.5-0.9,0.9-1.3,1.4c-0.4,0.5-0.9,1-1.3,1.5c-0.5,0.5-0.9,1-1.4,1.6
						c-0.9,1.1-1.9,2.2-2.8,3.3c-1,1.1-1.9,2.3-2.9,3.5c-1,1.2-1.9,2.3-2.8,3.5c-0.9,1.2-1.8,2.3-2.7,3.4c-0.1,0.1-0.2,0.3-0.3,0.4
						c-0.1,0.1-0.2,0.3-0.3,0.4c-0.1,0.1-0.2,0.3-0.3,0.4c-0.1,0.1-0.2,0.2-0.3,0.4l0.4-8.5c0.1-0.1,0.2-0.3,0.3-0.4
						s0.2-0.3,0.3-0.4c0.1-0.1,0.2-0.3,0.3-0.4c0.1-0.1,0.2-0.3,0.3-0.4c0.9-1.1,1.8-2.3,2.8-3.5c0.9-1.2,1.9-2.4,2.9-3.6
						c1-1.2,2-2.4,2.9-3.6c1-1.2,1.9-2.3,2.9-3.4c0.5-0.6,0.9-1.1,1.4-1.6c0.5-0.5,0.9-1,1.4-1.5c0.5-0.5,0.9-1,1.3-1.4
						c0.4-0.5,0.9-0.9,1.3-1.3c0.4-0.4,0.8-0.8,1.2-1.2c0.4-0.4,0.7-0.7,1.1-1c0.3-0.3,0.7-0.6,1-0.8
						C42.2,816.1,42.5,815.9,42.7,815.7"/>
					<path fill="#770009" d="M20.7,840.8l-0.4,8.5c-0.3,0.3-0.5,0.7-0.8,1c-0.3,0.3-0.5,0.6-0.8,1c-0.2,0.3-0.5,0.6-0.7,0.9
						c-0.2,0.3-0.5,0.6-0.7,0.9l0.3-8.4c0.2-0.3,0.5-0.6,0.7-0.9c0.2-0.3,0.5-0.6,0.8-1c0.3-0.3,0.5-0.7,0.8-1
						C20.1,841.5,20.4,841.2,20.7,840.8"/>
					<path fill="#720008" d="M17.6,844.7l-0.3,8.4c-0.2,0.2-0.4,0.5-0.5,0.7c-0.2,0.2-0.3,0.4-0.5,0.6c-0.2,0.2-0.3,0.4-0.5,0.6
						c-0.2,0.2-0.3,0.4-0.5,0.6c-0.2,0.3-0.5,0.6-0.7,0.9c-0.2,0.3-0.5,0.6-0.7,0.8c-0.2,0.3-0.4,0.5-0.6,0.8
						c-0.2,0.2-0.4,0.5-0.6,0.7c-0.2,0.3-0.5,0.5-0.7,0.7c-0.3,0.2-0.5,0.4-0.8,0.6c-0.3,0.2-0.6,0.3-0.9,0.5
						c-0.3,0.1-0.6,0.3-0.9,0.4l0.2-8.3c0.3-0.1,0.6-0.2,0.9-0.4c0.3-0.1,0.6-0.3,0.9-0.5c0.3-0.2,0.6-0.4,0.8-0.6
						c0.3-0.2,0.5-0.5,0.7-0.8c0.2-0.2,0.4-0.5,0.6-0.7c0.2-0.2,0.4-0.5,0.6-0.8c0.2-0.3,0.4-0.5,0.7-0.8c0.2-0.3,0.5-0.6,0.7-0.9
						c0.2-0.2,0.3-0.4,0.5-0.6c0.2-0.2,0.3-0.4,0.5-0.6c0.2-0.2,0.3-0.4,0.5-0.7C17.2,845.2,17.4,844.9,17.6,844.7"/>
				</g>
			</g>
			<g enable-background="new    ">
				<defs>
					<path id="SVGID_35_" enable-background="new    " d="M9.4,860.1c0.1-2.4,0.1-4.9,0.2-7.3c0.3-0.1,0.6-0.2,0.9-0.4
						c0.3-0.1,0.6-0.3,0.9-0.5c0.3-0.2,0.6-0.4,0.8-0.6c0.3-0.2,0.5-0.5,0.7-0.8c0.2-0.2,0.4-0.4,0.6-0.7c0.2-0.2,0.4-0.5,0.6-0.7
						c0.2-0.3,0.4-0.5,0.7-0.8c0.2-0.3,0.5-0.6,0.7-0.9c-0.1,1.4-0.1,2.8-0.2,4.2c-0.1,1.4-0.1,2.8-0.2,4.2
						c-0.2,0.3-0.5,0.6-0.7,0.9c-0.2,0.3-0.4,0.5-0.7,0.8c-0.2,0.3-0.4,0.5-0.6,0.7c-0.2,0.2-0.4,0.5-0.6,0.7
						c-0.2,0.3-0.5,0.5-0.7,0.7c-0.3,0.2-0.5,0.4-0.8,0.6c-0.3,0.2-0.6,0.3-0.9,0.5c-0.3,0.1-0.6,0.3-0.9,0.4
						C9.3,860.7,9.3,860.4,9.4,860.1z"/>
				</defs>
				<clipPath id="SVGID_36_">
					<use xlink:href="#SVGID_35_"  overflow="visible"/>
				</clipPath>
				<g clip-path="url(#SVGID_36_)" enable-background="new    ">
					<path fill="#720008" d="M17.6,844.7l-0.3,8.4c-0.2,0.2-0.4,0.5-0.5,0.7c-0.2,0.2-0.3,0.4-0.5,0.6c-0.2,0.2-0.3,0.4-0.5,0.6
						c-0.2,0.2-0.3,0.4-0.5,0.6c-0.2,0.3-0.5,0.6-0.7,0.9c-0.2,0.3-0.5,0.6-0.7,0.8c-0.2,0.3-0.4,0.5-0.6,0.8
						c-0.2,0.2-0.4,0.5-0.6,0.7c-0.2,0.3-0.5,0.5-0.7,0.7c-0.3,0.2-0.5,0.4-0.8,0.6c-0.3,0.2-0.6,0.3-0.9,0.5
						c-0.3,0.1-0.6,0.3-0.9,0.4l0.2-8.3c0.3-0.1,0.6-0.2,0.9-0.4c0.3-0.1,0.6-0.3,0.9-0.5c0.3-0.2,0.6-0.4,0.8-0.6
						c0.3-0.2,0.5-0.5,0.7-0.8c0.2-0.2,0.4-0.5,0.6-0.7c0.2-0.2,0.4-0.5,0.6-0.8c0.2-0.3,0.4-0.5,0.7-0.8c0.2-0.3,0.5-0.6,0.7-0.9
						c0.2-0.2,0.3-0.4,0.5-0.6c0.2-0.2,0.3-0.4,0.5-0.6c0.2-0.2,0.3-0.4,0.5-0.7C17.2,845.2,17.4,844.9,17.6,844.7"/>
				</g>
			</g>
			<g>
				<path fill="#C2000E" d="M42.7,815.7c-0.2,0.2-0.5,0.4-0.8,0.6c-0.3,0.2-0.6,0.5-1,0.8c-0.3,0.3-0.7,0.7-1.1,1
					c-0.4,0.4-0.8,0.8-1.2,1.2c-0.4,0.4-0.8,0.9-1.3,1.3c-0.4,0.5-0.9,0.9-1.3,1.4c-0.5,0.5-0.9,1-1.4,1.5c-0.5,0.5-0.9,1.1-1.4,1.6
					c-1,1.1-1.9,2.2-2.9,3.4c-1,1.2-2,2.4-2.9,3.6c-1,1.2-1.9,2.4-2.9,3.6c-0.9,1.2-1.9,2.4-2.8,3.5c-0.6,0.8-1.2,1.5-1.8,2.2
					c-0.6,0.7-1.1,1.4-1.6,2.1c-0.5,0.7-1,1.3-1.5,1.9c-0.5,0.6-1,1.2-1.4,1.8c-0.3,0.3-0.5,0.6-0.7,0.9c-0.2,0.3-0.5,0.6-0.7,0.8
					c-0.2,0.3-0.4,0.5-0.6,0.8c-0.2,0.2-0.4,0.5-0.6,0.7c-0.2,0.3-0.5,0.5-0.7,0.8c-0.3,0.2-0.5,0.4-0.8,0.6
					c-0.3,0.2-0.6,0.4-0.9,0.5c-0.3,0.1-0.6,0.3-0.9,0.4c0.1-0.1,0.3-0.2,0.4-0.3c0.1-0.1,0.2-0.2,0.4-0.3c0.1-0.1,0.2-0.2,0.3-0.3
					c0.1-0.1,0.2-0.2,0.3-0.4c0.2-0.2,0.4-0.5,0.6-0.7c0.2-0.2,0.4-0.5,0.6-0.8c0.2-0.3,0.4-0.5,0.7-0.8c0.2-0.3,0.5-0.6,0.7-0.9
					c0.4-0.6,0.9-1.1,1.4-1.8c0.5-0.6,1-1.3,1.5-1.9c0.5-0.7,1.1-1.4,1.6-2.1c0.6-0.7,1.2-1.5,1.7-2.2c0.9-1.1,1.8-2.3,2.8-3.5
					c0.9-1.2,1.9-2.4,2.9-3.6c1-1.2,2-2.4,2.9-3.6c1-1.2,1.9-2.3,2.9-3.4c0.5-0.5,0.9-1.1,1.4-1.6c0.5-0.5,0.9-1,1.4-1.5
					c0.5-0.5,0.9-1,1.3-1.4c0.4-0.5,0.9-0.9,1.3-1.3c0.4-0.4,0.8-0.8,1.2-1.2c0.4-0.4,0.7-0.7,1.1-1c0.3-0.3,0.7-0.6,1-0.8
					c0.3-0.2,0.6-0.5,0.8-0.6c0.6-0.5,1.3-1,1.9-1.4c0.6-0.4,1.2-0.9,1.8-1.3c0.6-0.4,1.1-0.8,1.7-1.1c0.5-0.3,1-0.6,1.5-0.9
					c0.2-0.1,0.3-0.2,0.5-0.2c0.2-0.1,0.3-0.1,0.4-0.2c0.1-0.1,0.3-0.1,0.4-0.2s0.3-0.1,0.4-0.2c-0.5,0.3-1,0.6-1.5,0.9
					c-0.5,0.3-1.1,0.7-1.6,1.1c-0.6,0.4-1.1,0.8-1.7,1.2C44,814.8,43.4,815.2,42.7,815.7z"/>
			</g>
			<g enable-background="new    ">
				<defs>
					<path id="SVGID_37_" enable-background="new    " d="M55.2,853.2l-1.1,8.3c0.1-0.8,0.2-1.7,0.3-2.6c0.1-0.9,0.1-1.7,0.2-2.6
						c0.1-0.9,0.1-1.8,0.1-2.7c0-0.9,0-1.8,0-2.7c0-1.1,0-2.2-0.1-3.3c0-1.1-0.1-2.2-0.2-3.3c-0.1-1.1-0.2-2.2-0.3-3.2
						c-0.1-1.1-0.2-2.1-0.3-3.1c-0.1-1-0.3-2-0.4-3c-0.2-1-0.3-1.9-0.5-2.9c-0.2-0.9-0.4-1.8-0.5-2.7c-0.2-0.9-0.4-1.7-0.6-2.5
						c-0.1-0.5-0.3-1-0.4-1.5c-0.1-0.5-0.3-0.9-0.4-1.4c-0.1-0.4-0.3-0.8-0.4-1.2c-0.1-0.4-0.3-0.7-0.4-1.1
						c-0.1-0.2-0.1-0.4-0.2-0.5c-0.1-0.2-0.1-0.3-0.2-0.5s-0.1-0.3-0.2-0.4c-0.1-0.1-0.1-0.2-0.2-0.3l1-9.1c0,0.1,0.1,0.2,0.2,0.3
						s0.1,0.2,0.2,0.4c0.1,0.1,0.1,0.3,0.2,0.5c0.1,0.2,0.1,0.3,0.2,0.5c0.1,0.3,0.3,0.7,0.4,1.1c0.1,0.4,0.3,0.8,0.4,1.2
						c0.1,0.4,0.3,0.9,0.4,1.4c0.1,0.5,0.3,1,0.4,1.5c0.2,0.8,0.4,1.6,0.6,2.5c0.2,0.9,0.4,1.8,0.6,2.7c0.2,0.9,0.3,1.9,0.5,2.9
						c0.2,1,0.3,2,0.4,3.1c0.1,1,0.3,2.1,0.4,3.2c0.1,1.1,0.2,2.2,0.3,3.3c0.1,1.1,0.1,2.2,0.2,3.3c0,1.1,0.1,2.2,0.1,3.3
						c0,0.9,0,1.9,0,2.8c0,0.9-0.1,1.8-0.1,2.8c-0.1,0.9-0.1,1.8-0.2,2.7C55.4,851.5,55.3,852.3,55.2,853.2z"/>
				</defs>
				<clipPath id="SVGID_38_">
					<use xlink:href="#SVGID_37_"  overflow="visible"/>
				</clipPath>
				<g clip-path="url(#SVGID_38_)" enable-background="new    ">
					<path fill="#720008" d="M55.2,853.2l-1.1,8.3c0.1-0.8,0.2-1.7,0.3-2.6c0.1-0.9,0.1-1.7,0.2-2.6c0.1-0.9,0.1-1.8,0.1-2.7
						c0-0.9,0-1.8,0-2.7c0-1.1,0-2.2-0.1-3.3c0-1.1-0.1-2.2-0.2-3.3c-0.1-1.1-0.2-2.2-0.3-3.2c-0.1-1.1-0.2-2.1-0.3-3.1
						c-0.1-1-0.3-2-0.4-3c-0.2-1-0.3-1.9-0.5-2.9c-0.2-0.9-0.4-1.8-0.5-2.7c-0.2-0.9-0.4-1.7-0.6-2.5c-0.1-0.5-0.3-1-0.4-1.5
						c-0.1-0.5-0.3-0.9-0.4-1.4c-0.1-0.4-0.3-0.8-0.4-1.2c-0.1-0.4-0.3-0.7-0.4-1.1c-0.1-0.2-0.1-0.4-0.2-0.5
						c-0.1-0.2-0.1-0.3-0.2-0.5s-0.1-0.3-0.2-0.4c-0.1-0.1-0.1-0.2-0.2-0.3l1-9.1c0,0.1,0.1,0.2,0.2,0.3s0.1,0.2,0.2,0.4
						c0.1,0.1,0.1,0.3,0.2,0.5c0.1,0.2,0.1,0.3,0.2,0.5c0.1,0.3,0.3,0.7,0.4,1.1c0.1,0.4,0.3,0.8,0.4,1.2c0.1,0.4,0.3,0.9,0.4,1.4
						c0.1,0.5,0.3,1,0.4,1.5c0.2,0.8,0.4,1.6,0.6,2.5c0.2,0.9,0.4,1.8,0.6,2.7c0.2,0.9,0.3,1.9,0.5,2.9c0.2,1,0.3,2,0.4,3.1
						c0.1,1,0.3,2.1,0.4,3.2c0.1,1.1,0.2,2.2,0.3,3.3c0.1,1.1,0.1,2.2,0.2,3.3c0,1.1,0.1,2.2,0.1,3.3c0,0.9,0,1.9,0,2.8
						c0,0.9-0.1,1.8-0.1,2.8c-0.1,0.9-0.1,1.8-0.2,2.7C55.4,851.5,55.3,852.3,55.2,853.2"/>
				</g>
			</g>
			<g enable-background="new    ">
				<defs>
					<path id="SVGID_39_" enable-background="new    " d="M-18.3,794.8l0.4,9.4c0.1,1.4,0.1,2.8,0.2,4.3c0,1.4,0.1,2.9,0.1,4.3
						c0,1.4,0.1,2.8,0.1,4.2c0,1.4,0,2.8,0,4.2c0,0.9,0,1.8,0,2.7c0,0.9,0,1.8,0,2.7c0,0.9,0,1.8-0.1,2.6c0,0.9-0.1,1.7-0.1,2.5
						c0,0.8-0.1,1.6-0.2,2.4c-0.1,0.8-0.1,1.6-0.2,2.3c-0.1,0.8-0.2,1.5-0.3,2.2c-0.1,0.7-0.2,1.4-0.3,2.1c-0.1,0.5-0.2,0.9-0.2,1.4
						c-0.1,0.4-0.2,0.9-0.3,1.3c-0.1,0.4-0.2,0.9-0.3,1.3c-0.1,0.4-0.2,0.8-0.4,1.3c-0.3,0.8-0.6,1.6-0.9,2.4
						c-0.3,0.8-0.7,1.5-1.1,2.2c-0.4,0.7-0.9,1.4-1.3,2c-0.5,0.6-1,1.3-1.5,1.8c-0.5,0.6-1.1,1.1-1.7,1.6c-0.6,0.5-1.2,1-1.8,1.4
						c-0.6,0.4-1.2,0.8-1.9,1.2c-0.6,0.3-1.3,0.7-1.9,0.9c-0.4,0.2-0.9,0.4-1.3,0.5c-0.4,0.2-0.9,0.3-1.3,0.4
						c-0.4,0.1-0.9,0.3-1.3,0.4c-0.4,0.1-0.9,0.2-1.3,0.3c-0.6,0.1-1.1,0.2-1.7,0.3c-0.6,0.1-1.1,0.1-1.7,0.2
						c-0.5,0-1.1,0.1-1.6,0.1c-0.5,0-1.1,0-1.6,0c-1.3,0-2.6-0.1-3.8-0.2c-1.2-0.1-2.4-0.3-3.5-0.5c-1.1-0.2-2.1-0.4-3.1-0.6
						c-1-0.2-1.8-0.5-2.6-0.7c-0.6-0.2-1.1-0.4-1.6-0.6c-0.5-0.2-1-0.5-1.5-0.7c-0.5-0.3-0.9-0.5-1.4-0.8c-0.4-0.3-0.9-0.6-1.3-0.9
						c-0.4-0.3-0.8-0.6-1.2-1c-0.4-0.3-0.7-0.7-1.1-1c-0.3-0.4-0.7-0.7-1-1.1c-0.3-0.4-0.6-0.7-0.9-1.1c-0.6-0.8-1.2-1.5-1.7-2.3
						c-0.5-0.8-1-1.6-1.5-2.4c-0.5-0.8-0.9-1.6-1.3-2.5c-0.4-0.8-0.8-1.7-1.1-2.5c-0.2-0.6-0.4-1.1-0.7-1.6
						c-0.2-0.5-0.4-1.1-0.6-1.6c-0.2-0.5-0.4-1.1-0.5-1.6c-0.2-0.5-0.3-1.1-0.4-1.6c0-0.2-0.1-0.4-0.1-0.5c0-0.2-0.1-0.4-0.1-0.5
						c0-0.2-0.1-0.4-0.1-0.5c0-0.2-0.1-0.4-0.1-0.5l-1.5-8.8c0,0.2,0.1,0.4,0.1,0.5c0,0.2,0.1,0.4,0.1,0.5s0.1,0.4,0.1,0.5
						c0,0.2,0.1,0.4,0.1,0.5c0.1,0.5,0.3,1.1,0.4,1.6c0.2,0.5,0.3,1.1,0.5,1.6c0.2,0.6,0.4,1.1,0.6,1.7c0.2,0.6,0.4,1.1,0.7,1.7
						c0.4,0.8,0.7,1.7,1.2,2.5c0.4,0.8,0.9,1.7,1.3,2.5c0.5,0.8,1,1.7,1.5,2.5c0.5,0.8,1.1,1.6,1.7,2.4c0.3,0.4,0.6,0.8,0.9,1.1
						c0.3,0.4,0.7,0.7,1,1.1c0.3,0.4,0.7,0.7,1.1,1.1c0.4,0.3,0.8,0.7,1.2,1c0.4,0.3,0.8,0.6,1.3,0.9c0.4,0.3,0.9,0.6,1.4,0.9
						c0.5,0.3,1,0.5,1.5,0.7c0.5,0.2,1.1,0.4,1.7,0.6c0.8,0.2,1.7,0.5,2.7,0.7c1,0.2,2,0.4,3.1,0.6c1.1,0.2,2.3,0.3,3.6,0.5
						c1.2,0.1,2.6,0.2,3.9,0.2c0.5,0,1.1,0,1.6,0c0.5,0,1.1-0.1,1.7-0.1c0.6-0.1,1.1-0.1,1.7-0.2c0.6-0.1,1.1-0.2,1.7-0.3
						c0.4-0.1,0.9-0.2,1.3-0.3c0.4-0.1,0.9-0.2,1.3-0.4c0.4-0.1,0.9-0.3,1.3-0.4c0.4-0.2,0.9-0.3,1.3-0.5c0.7-0.3,1.3-0.6,2-1
						c0.6-0.4,1.3-0.8,1.9-1.2c0.6-0.4,1.2-0.9,1.8-1.4c0.6-0.5,1.2-1.1,1.7-1.6c0.5-0.6,1.1-1.2,1.5-1.9c0.5-0.7,0.9-1.3,1.4-2.1
						c0.4-0.7,0.8-1.5,1.2-2.3c0.4-0.8,0.7-1.6,0.9-2.4c0.1-0.4,0.3-0.8,0.4-1.3c0.1-0.4,0.2-0.9,0.3-1.3c0.1-0.4,0.2-0.9,0.3-1.3
						c0.1-0.5,0.2-0.9,0.3-1.4c0.1-0.7,0.2-1.4,0.3-2.2c0.1-0.7,0.2-1.5,0.3-2.3c0.1-0.8,0.1-1.6,0.2-2.4c0.1-0.8,0.1-1.6,0.2-2.5
						c0-0.8,0.1-1.7,0.1-2.6c0-0.9,0.1-1.8,0.1-2.7c0-0.9,0-1.8,0-2.7c0-0.9,0-1.9,0-2.8c0-1.4,0-2.8,0-4.2c0-1.4,0-2.9-0.1-4.3
						c0-1.4-0.1-2.9-0.1-4.4C-18.2,797.7-18.2,796.2-18.3,794.8z"/>
				</defs>
				<clipPath id="SVGID_40_">
					<use xlink:href="#SVGID_39_"  overflow="visible"/>
				</clipPath>
				<g clip-path="url(#SVGID_40_)" enable-background="new    ">
					<path fill="#84000A" d="M-18.3,794.8l0.4,9.4c0,0,0,0,0,0s0,0,0,0c0,0,0,0,0,0c0,0,0,0,0,0l-0.4-9.4c0,0,0,0,0,0
						C-18.3,794.9-18.3,794.9-18.3,794.8C-18.3,794.8-18.3,794.8-18.3,794.8C-18.3,794.8-18.3,794.8-18.3,794.8"/>
					<path fill="#800009" d="M-18.3,794.9l0.4,9.4c0.1,1.4,0.1,2.8,0.1,4.2c0,1.4,0.1,2.8,0.1,4.2c0,1.4,0.1,2.8,0.1,4.2
						c0,1.4,0,2.8,0,4.1c0,0.9,0,1.8,0,2.7c0,0.9,0,1.8,0,2.7c0,0.9,0,1.8-0.1,2.6c0,0.9-0.1,1.7-0.1,2.5c0,0.8-0.1,1.6-0.2,2.4
						c-0.1,0.8-0.1,1.6-0.2,2.3c-0.1,0.8-0.2,1.5-0.3,2.2c-0.1,0.7-0.2,1.4-0.3,2.1c0,0.2-0.1,0.4-0.1,0.6c0,0.2-0.1,0.4-0.1,0.6
						c0,0.2-0.1,0.4-0.1,0.6c0,0.2-0.1,0.4-0.1,0.6l-0.4-8.6c0-0.2,0.1-0.4,0.1-0.6c0-0.2,0.1-0.4,0.1-0.6c0-0.2,0.1-0.4,0.1-0.6
						s0.1-0.4,0.1-0.6c0.1-0.7,0.2-1.4,0.3-2.2c0.1-0.7,0.2-1.5,0.3-2.3c0.1-0.8,0.1-1.6,0.2-2.4c0.1-0.8,0.1-1.6,0.2-2.5
						c0-0.8,0.1-1.7,0.1-2.6c0-0.9,0.1-1.8,0.1-2.7c0-0.9,0-1.8,0-2.7c0-0.9,0-1.9,0-2.8c0-1.4,0-2.8,0-4.2c0-1.4,0-2.8-0.1-4.3
						c0-1.4-0.1-2.9-0.1-4.3C-18.2,797.8-18.2,796.4-18.3,794.9"/>
					<path fill="#7B0009" d="M-19.6,834.4l0.4,8.6c-0.1,0.3-0.1,0.5-0.2,0.8c-0.1,0.2-0.1,0.5-0.2,0.7c-0.1,0.2-0.1,0.5-0.2,0.7
						c-0.1,0.2-0.1,0.5-0.2,0.7c-0.1,0.2-0.2,0.5-0.2,0.7c-0.1,0.2-0.2,0.5-0.3,0.7c-0.1,0.2-0.2,0.4-0.3,0.7
						c-0.1,0.2-0.2,0.4-0.3,0.7l-0.4-8.5c0.1-0.2,0.2-0.4,0.3-0.7c0.1-0.2,0.2-0.4,0.3-0.7c0.1-0.2,0.2-0.5,0.3-0.7
						c0.1-0.2,0.2-0.5,0.2-0.7c0.1-0.2,0.2-0.5,0.2-0.7c0.1-0.2,0.1-0.5,0.2-0.7c0.1-0.2,0.1-0.5,0.2-0.8
						C-19.7,834.9-19.6,834.7-19.6,834.4"/>
					<path fill="#770009" d="M-21.5,840.1l0.4,8.5c-0.2,0.4-0.4,0.8-0.6,1.2c-0.2,0.4-0.4,0.8-0.7,1.2c-0.2,0.4-0.5,0.7-0.7,1.1
						c-0.2,0.4-0.5,0.7-0.8,1l-0.5-8.4c0.3-0.3,0.5-0.7,0.8-1.1c0.3-0.4,0.5-0.7,0.7-1.1c0.2-0.4,0.5-0.8,0.7-1.2
						C-21.9,841-21.7,840.6-21.5,840.1"/>
					<path fill="#720008" d="M-24.3,844.7l0.5,8.4c-0.1,0.1-0.2,0.2-0.3,0.3s-0.2,0.2-0.3,0.3s-0.2,0.2-0.3,0.3
						c-0.1,0.1-0.2,0.2-0.3,0.3c-0.5,0.6-1.1,1.1-1.7,1.6c-0.6,0.5-1.2,1-1.8,1.4c-0.6,0.4-1.2,0.8-1.9,1.2
						c-0.6,0.3-1.3,0.7-1.9,0.9c-0.4,0.2-0.9,0.4-1.3,0.5c-0.4,0.2-0.9,0.3-1.3,0.4c-0.4,0.1-0.9,0.3-1.3,0.4
						c-0.4,0.1-0.9,0.2-1.3,0.3c-0.6,0.1-1.1,0.2-1.7,0.3c-0.6,0.1-1.1,0.1-1.7,0.2c-0.5,0-1.1,0.1-1.6,0.1c-0.5,0-1.1,0-1.6,0
						c-1.3,0-2.6-0.1-3.8-0.2c-1.2-0.1-2.4-0.3-3.5-0.5c-1.1-0.2-2.1-0.4-3.1-0.6c-1-0.2-1.8-0.5-2.6-0.7c-0.6-0.2-1.1-0.4-1.6-0.6
						c-0.5-0.2-1-0.5-1.5-0.7c-0.5-0.3-0.9-0.5-1.4-0.8c-0.4-0.3-0.9-0.6-1.3-0.9c-0.4-0.3-0.8-0.6-1.2-1c-0.4-0.3-0.7-0.7-1.1-1
						c-0.3-0.4-0.7-0.7-1-1.1c-0.3-0.4-0.6-0.7-0.9-1.1c-0.6-0.8-1.2-1.5-1.7-2.3c-0.5-0.8-1-1.6-1.5-2.4c-0.5-0.8-0.9-1.6-1.3-2.5
						c-0.4-0.8-0.8-1.7-1.1-2.5c-0.2-0.6-0.4-1.1-0.7-1.6c-0.2-0.5-0.4-1.1-0.6-1.6c-0.2-0.5-0.4-1.1-0.5-1.6
						c-0.2-0.5-0.3-1.1-0.4-1.6c0-0.2-0.1-0.4-0.1-0.5c0-0.2-0.1-0.4-0.1-0.5c0-0.2-0.1-0.4-0.1-0.5c0-0.2-0.1-0.4-0.1-0.5l-1.5-8.8
						c0,0.2,0.1,0.4,0.1,0.5c0,0.2,0.1,0.4,0.1,0.5s0.1,0.4,0.1,0.5c0,0.2,0.1,0.4,0.1,0.5c0.1,0.5,0.3,1.1,0.4,1.6
						c0.2,0.5,0.3,1.1,0.5,1.6c0.2,0.6,0.4,1.1,0.6,1.7c0.2,0.6,0.4,1.1,0.7,1.7c0.4,0.8,0.7,1.7,1.2,2.5c0.4,0.8,0.9,1.7,1.3,2.5
						c0.5,0.8,1,1.7,1.5,2.5c0.5,0.8,1.1,1.6,1.7,2.4c0.3,0.4,0.6,0.8,0.9,1.1c0.3,0.4,0.7,0.7,1,1.1c0.3,0.4,0.7,0.7,1.1,1.1
						c0.4,0.3,0.8,0.7,1.2,1c0.4,0.3,0.8,0.6,1.3,0.9c0.4,0.3,0.9,0.6,1.4,0.9c0.5,0.3,1,0.5,1.5,0.7c0.5,0.2,1.1,0.4,1.7,0.6
						c0.8,0.2,1.7,0.5,2.7,0.7c1,0.2,2,0.4,3.1,0.6c1.1,0.2,2.3,0.3,3.6,0.5c1.2,0.1,2.6,0.2,3.9,0.2c0.5,0,1.1,0,1.6,0
						c0.5,0,1.1-0.1,1.7-0.1c0.6-0.1,1.1-0.1,1.7-0.2c0.6-0.1,1.1-0.2,1.7-0.3c0.4-0.1,0.9-0.2,1.3-0.3c0.4-0.1,0.9-0.2,1.3-0.4
						c0.4-0.1,0.9-0.3,1.3-0.4c0.4-0.2,0.9-0.3,1.3-0.5c0.7-0.3,1.3-0.6,2-1c0.6-0.4,1.3-0.8,1.9-1.2c0.6-0.4,1.2-0.9,1.8-1.4
						c0.6-0.5,1.2-1.1,1.7-1.6c0.1-0.1,0.2-0.2,0.3-0.3c0.1-0.1,0.2-0.2,0.3-0.3c0.1-0.1,0.2-0.2,0.3-0.3
						C-24.5,844.9-24.4,844.8-24.3,844.7"/>
				</g>
			</g>
			<g enable-background="new    ">
				<defs>
					<path id="SVGID_41_" enable-background="new    " d="M69.7,857.8l-1.4,8.2c0.2-1.2,0.4-2.5,0.5-3.7c0.1-1.3,0.3-2.5,0.4-3.8
						c0.1-1.3,0.2-2.6,0.2-3.8c0-1.3,0.1-2.6,0-3.8c0-1.9-0.1-3.8-0.2-5.7c-0.1-1.9-0.2-3.7-0.4-5.5c-0.2-1.8-0.4-3.6-0.6-5.3
						c-0.2-1.7-0.5-3.4-0.8-5c-0.2-0.8-0.3-1.6-0.5-2.4c-0.2-0.8-0.3-1.5-0.5-2.3c-0.2-0.7-0.4-1.5-0.6-2.2c-0.2-0.7-0.4-1.4-0.6-2
						c-0.1-0.3-0.2-0.7-0.3-1c-0.1-0.3-0.2-0.6-0.3-1c-0.1-0.3-0.2-0.6-0.3-0.9c-0.1-0.3-0.2-0.6-0.3-0.9c-0.1-0.3-0.2-0.6-0.4-0.9
						c-0.1-0.3-0.2-0.6-0.4-0.8c-0.1-0.3-0.3-0.5-0.4-0.8c-0.1-0.3-0.3-0.5-0.4-0.8c-0.2-0.3-0.3-0.6-0.5-0.8
						c-0.2-0.3-0.3-0.5-0.5-0.8c-0.2-0.3-0.4-0.5-0.6-0.8c-0.2-0.3-0.4-0.5-0.6-0.7c-0.3-0.4-0.7-0.7-1-1c-0.4-0.3-0.7-0.7-1.1-1
						c-0.4-0.3-0.8-0.6-1.2-0.8c-0.4-0.3-0.9-0.5-1.3-0.7c-0.5-0.2-0.9-0.4-1.4-0.5c-0.5-0.1-0.9-0.3-1.4-0.4
						c-0.5-0.1-0.9-0.2-1.4-0.2c-0.5,0-0.9-0.1-1.4-0.1c-0.5,0-1,0-1.5,0.1s-1,0.1-1.4,0.2c-0.5,0.1-0.9,0.2-1.3,0.3
						c-0.4,0.1-0.9,0.2-1.3,0.4c-0.2,0.1-0.4,0.1-0.6,0.2c-0.2,0.1-0.4,0.2-0.6,0.2c-0.2,0.1-0.4,0.2-0.6,0.3
						c-0.2,0.1-0.4,0.2-0.6,0.3l0.8-9.3c0.2-0.1,0.4-0.2,0.6-0.3s0.4-0.2,0.6-0.3c0.2-0.1,0.4-0.2,0.6-0.2c0.2-0.1,0.4-0.2,0.7-0.2
						c0.4-0.1,0.9-0.3,1.3-0.4c0.4-0.1,0.9-0.2,1.4-0.3c0.5-0.1,0.9-0.2,1.4-0.2c0.5,0,1-0.1,1.5-0.1c0.5,0,0.9,0,1.4,0.1
						c0.5,0,1,0.1,1.4,0.2c0.5,0.1,1,0.2,1.4,0.4c0.5,0.1,1,0.3,1.4,0.5c0.5,0.2,0.9,0.4,1.4,0.7c0.4,0.3,0.9,0.5,1.3,0.8
						c0.4,0.3,0.8,0.6,1.2,1c0.4,0.3,0.7,0.7,1,1.1c0.2,0.2,0.4,0.5,0.6,0.8c0.2,0.3,0.4,0.5,0.6,0.8c0.2,0.3,0.4,0.5,0.5,0.8
						c0.2,0.3,0.3,0.6,0.5,0.8c0.1,0.3,0.3,0.5,0.4,0.8c0.1,0.3,0.3,0.6,0.4,0.8c0.1,0.3,0.3,0.6,0.4,0.9s0.2,0.6,0.4,0.9
						c0.1,0.3,0.2,0.6,0.3,0.9c0.1,0.3,0.2,0.6,0.3,0.9c0.1,0.3,0.2,0.6,0.3,1c0.1,0.3,0.2,0.7,0.3,1c0.2,0.7,0.4,1.4,0.6,2.1
						c0.2,0.7,0.4,1.5,0.6,2.2c0.2,0.8,0.4,1.5,0.5,2.3c0.2,0.8,0.3,1.6,0.5,2.4c0.3,1.7,0.6,3.4,0.9,5.1c0.3,1.8,0.5,3.6,0.7,5.4
						c0.2,1.9,0.3,3.7,0.4,5.7c0.1,1.9,0.2,3.8,0.2,5.8c0,1.3,0,2.6,0,3.9c0,1.3-0.1,2.6-0.2,3.9c-0.1,1.3-0.2,2.6-0.4,3.9
						C70.1,855.3,69.9,856.6,69.7,857.8z"/>
				</defs>
				<clipPath id="SVGID_42_">
					<use xlink:href="#SVGID_41_"  overflow="visible"/>
				</clipPath>
				<g clip-path="url(#SVGID_42_)" enable-background="new    ">
					<path fill="#720008" d="M69.7,857.8l-1.4,8.2c0.2-1.2,0.4-2.5,0.5-3.7c0.1-1.3,0.3-2.5,0.4-3.8c0.1-1.3,0.2-2.6,0.2-3.8
						c0-1.3,0.1-2.6,0-3.8c0-1.9-0.1-3.8-0.2-5.7c-0.1-1.9-0.2-3.7-0.4-5.5c-0.2-1.8-0.4-3.6-0.6-5.3c-0.2-1.7-0.5-3.4-0.8-5
						c-0.2-0.8-0.3-1.6-0.5-2.4c-0.2-0.8-0.3-1.5-0.5-2.3c-0.2-0.7-0.4-1.5-0.6-2.2c-0.2-0.7-0.4-1.4-0.6-2c-0.1-0.3-0.2-0.7-0.3-1
						c-0.1-0.3-0.2-0.6-0.3-1c-0.1-0.3-0.2-0.6-0.3-0.9c-0.1-0.3-0.2-0.6-0.3-0.9c-0.1-0.3-0.2-0.6-0.4-0.9
						c-0.1-0.3-0.2-0.6-0.4-0.8c-0.1-0.3-0.3-0.5-0.4-0.8c-0.1-0.3-0.3-0.5-0.4-0.8c-0.2-0.3-0.3-0.6-0.5-0.8
						c-0.2-0.3-0.3-0.5-0.5-0.8c-0.2-0.3-0.4-0.5-0.6-0.8c-0.2-0.3-0.4-0.5-0.6-0.7c-0.3-0.4-0.7-0.7-1-1c-0.4-0.3-0.7-0.7-1.1-1
						c-0.4-0.3-0.8-0.6-1.2-0.8c-0.4-0.3-0.9-0.5-1.3-0.7c-0.5-0.2-0.9-0.4-1.4-0.5c-0.5-0.1-0.9-0.3-1.4-0.4
						c-0.5-0.1-0.9-0.2-1.4-0.2c-0.5,0-0.9-0.1-1.4-0.1c-0.5,0-1,0-1.5,0.1s-1,0.1-1.4,0.2c-0.5,0.1-0.9,0.2-1.3,0.3
						c-0.4,0.1-0.9,0.2-1.3,0.4c-0.2,0.1-0.4,0.1-0.6,0.2c-0.2,0.1-0.4,0.2-0.6,0.2c-0.2,0.1-0.4,0.2-0.6,0.3
						c-0.2,0.1-0.4,0.2-0.6,0.3l0.8-9.3c0.2-0.1,0.4-0.2,0.6-0.3s0.4-0.2,0.6-0.3c0.2-0.1,0.4-0.2,0.6-0.2c0.2-0.1,0.4-0.2,0.7-0.2
						c0.4-0.1,0.9-0.3,1.3-0.4c0.4-0.1,0.9-0.2,1.4-0.3c0.5-0.1,0.9-0.2,1.4-0.2c0.5,0,1-0.1,1.5-0.1c0.5,0,0.9,0,1.4,0.1
						c0.5,0,1,0.1,1.4,0.2c0.5,0.1,1,0.2,1.4,0.4c0.5,0.1,1,0.3,1.4,0.5c0.5,0.2,0.9,0.4,1.4,0.7c0.4,0.3,0.9,0.5,1.3,0.8
						c0.4,0.3,0.8,0.6,1.2,1c0.4,0.3,0.7,0.7,1,1.1c0.2,0.2,0.4,0.5,0.6,0.8c0.2,0.3,0.4,0.5,0.6,0.8c0.2,0.3,0.4,0.5,0.5,0.8
						c0.2,0.3,0.3,0.6,0.5,0.8c0.1,0.3,0.3,0.5,0.4,0.8c0.1,0.3,0.3,0.6,0.4,0.8c0.1,0.3,0.3,0.6,0.4,0.9s0.2,0.6,0.4,0.9
						c0.1,0.3,0.2,0.6,0.3,0.9c0.1,0.3,0.2,0.6,0.3,0.9c0.1,0.3,0.2,0.6,0.3,1c0.1,0.3,0.2,0.7,0.3,1c0.2,0.7,0.4,1.4,0.6,2.1
						c0.2,0.7,0.4,1.5,0.6,2.2c0.2,0.8,0.4,1.5,0.5,2.3c0.2,0.8,0.3,1.6,0.5,2.4c0.3,1.7,0.6,3.4,0.9,5.1c0.3,1.8,0.5,3.6,0.7,5.4
						c0.2,1.9,0.3,3.7,0.4,5.7c0.1,1.9,0.2,3.8,0.2,5.8c0,1.3,0,2.6,0,3.9c0,1.3-0.1,2.6-0.2,3.9c-0.1,1.3-0.2,2.6-0.4,3.9
						C70.1,855.3,69.9,856.6,69.7,857.8"/>
				</g>
			</g>
			<g>
				<polygon fill="#6E0008" points="-14.4,908.8 -14.1,916 -18.6,915.1 -19,907.8 				"/>
			</g>
			<g>
				<polygon fill="#343434" points="-14.4,908.8 -14.1,916 -15.7,918.6 -16.1,911.4 				"/>
			</g>
			<g>
				<polygon fill="#2D2D2D" points="-16.1,911.4 -15.7,918.6 -18.6,915.1 -19,907.8 				"/>
			</g>
			<g>
				<polygon fill="#7E0009" points="9.7,898.4 9.5,905.8 1.5,918.7 1.5,911.6 				"/>
			</g>
			<g>
				<polygon fill="#7E0009" points="1.5,911.6 1.5,918.7 0.8,919.9 0.8,912.8 				"/>
			</g>
			<g enable-background="new    ">
				<defs>
					<path id="SVGID_43_" enable-background="new    " d="M11.1,921.3c-0.8-0.1-1.7-0.1-2.6-0.2c-0.9-0.1-1.7-0.2-2.6-0.3
						c-0.9-0.1-1.7-0.2-2.6-0.4c-0.9-0.1-1.7-0.3-2.6-0.4l0-7.1c0.9,0.2,1.7,0.3,2.6,0.4c0.9,0.1,1.8,0.3,2.6,0.4
						c0.9,0.1,1.8,0.2,2.6,0.3c0.9,0.1,1.7,0.2,2.6,0.2c0.3,0,0.7,0,1,0.1s0.7,0,1,0c0.3,0,0.7,0,1,0c0.3,0,0.7,0,1,0c0,0,0,0,0,0
						s0,0,0,0c0,0,0,0,0,0c0,0,0,0,0,0c-0.1,2.4-0.2,4.7-0.3,7.1c0,0,0,0,0,0c0,0,0,0,0,0c0,0,0,0,0,0c0,0,0,0,0,0c-0.3,0-0.7,0-1,0
						s-0.7,0-1,0s-0.7,0-1,0S11.4,921.3,11.1,921.3z"/>
				</defs>
				<clipPath id="SVGID_44_">
					<use xlink:href="#SVGID_43_"  overflow="visible"/>
				</clipPath>
				<g clip-path="url(#SVGID_44_)" enable-background="new    ">
					<path fill="#720008" d="M29.7,911.3l-0.6,7.1c-0.4,0.2-0.7,0.4-1.1,0.6c-0.4,0.2-0.8,0.4-1.2,0.5c-0.4,0.2-0.8,0.3-1.3,0.5
						c-0.4,0.1-0.9,0.3-1.4,0.4c-0.6,0.2-1.3,0.3-2,0.4c-0.7,0.1-1.4,0.2-2.2,0.3c-0.7,0.1-1.5,0.1-2.3,0.2c-0.8,0-1.6,0.1-2.4,0.1
						c0,0,0,0,0,0s0,0,0,0c0,0,0,0,0,0c0,0,0,0,0,0c-0.3,0-0.7,0-1,0s-0.7,0-1,0s-0.7,0-1,0s-0.7,0-1-0.1c-0.8-0.1-1.7-0.1-2.6-0.2
						c-0.9-0.1-1.7-0.2-2.6-0.3c-0.9-0.1-1.7-0.2-2.6-0.4c-0.9-0.1-1.7-0.3-2.6-0.4l0-7.1c0.9,0.2,1.7,0.3,2.6,0.4
						c0.9,0.1,1.8,0.3,2.6,0.4c0.9,0.1,1.8,0.2,2.6,0.3c0.9,0.1,1.7,0.2,2.6,0.2c0.3,0,0.7,0,1,0.1s0.7,0,1,0c0.3,0,0.7,0,1,0
						c0.3,0,0.7,0,1,0c0,0,0,0,0,0c0,0,0,0,0,0c0,0,0,0,0,0c0,0,0,0,0,0c0.8,0,1.6,0,2.4-0.1c0.8,0,1.6-0.1,2.3-0.2
						c0.8-0.1,1.5-0.2,2.2-0.3c0.7-0.1,1.4-0.3,2.1-0.4c0.5-0.1,1-0.3,1.4-0.4c0.5-0.1,0.9-0.3,1.3-0.5c0.4-0.2,0.8-0.3,1.2-0.5
						C29,911.7,29.3,911.5,29.7,911.3"/>
				</g>
			</g>
			<g enable-background="new    ">
				<defs>
					<path id="SVGID_45_" enable-background="new    " d="M15.2,921.4C15.2,921.4,15.2,921.4,15.2,921.4
						C15.2,921.4,15.2,921.4,15.2,921.4c-0.1,0-0.1,0-0.1,0c0,0,0,0,0,0c0.1-2.4,0.2-4.7,0.3-7.1c0,0,0,0,0,0c0,0,0,0,0,0
						c0,0,0,0,0,0c0,0,0,0,0,0c0.8,0,1.6,0,2.4-0.1c0.8,0,1.6-0.1,2.3-0.2c0.8-0.1,1.5-0.2,2.2-0.3c0.7-0.1,1.4-0.3,2.1-0.4
						c-0.2,2.4-0.3,4.7-0.5,7.1c0.2-2.4,0.3-4.7,0.5-7.1c0,0,0,0,0,0c0,0,0,0,0,0c0,0,0,0,0,0c0,0,0,0,0,0c0.5-0.1,1-0.3,1.4-0.4
						c0.5-0.1,0.9-0.3,1.3-0.5c0.4-0.2,0.8-0.3,1.2-0.5c0.4-0.2,0.8-0.4,1.1-0.6l-0.6,7.1c-0.4,0.2-0.7,0.4-1.1,0.6
						c-0.4,0.2-0.8,0.4-1.2,0.5c-0.4,0.2-0.8,0.3-1.3,0.5c-0.4,0.1-0.9,0.3-1.4,0.4c-0.6,0.2-1.3,0.3-2,0.4
						c-0.7,0.1-1.4,0.2-2.2,0.3c-0.7,0.1-1.5,0.1-2.3,0.2C16.8,921.4,16,921.4,15.2,921.4z"/>
				</defs>
				<clipPath id="SVGID_46_">
					<use xlink:href="#SVGID_45_"  overflow="visible"/>
				</clipPath>
				<g clip-path="url(#SVGID_46_)" enable-background="new    ">
					<path fill="#720008" d="M29.7,911.3l-0.6,7.1c-0.4,0.2-0.7,0.4-1.1,0.6c-0.4,0.2-0.8,0.4-1.2,0.5c-0.4,0.2-0.8,0.3-1.3,0.5
						c-0.4,0.1-0.9,0.3-1.4,0.4c-0.6,0.2-1.3,0.3-2,0.4c-0.7,0.1-1.4,0.2-2.2,0.3c-0.7,0.1-1.5,0.1-2.3,0.2c-0.8,0-1.6,0.1-2.4,0.1
						c0,0,0,0,0,0s0,0,0,0c0,0,0,0,0,0c0,0,0,0,0,0c-0.3,0-0.7,0-1,0s-0.7,0-1,0s-0.7,0-1,0s-0.7,0-1-0.1c-0.8-0.1-1.7-0.1-2.6-0.2
						c-0.9-0.1-1.7-0.2-2.6-0.3c-0.9-0.1-1.7-0.2-2.6-0.4c-0.9-0.1-1.7-0.3-2.6-0.4l0-7.1c0.9,0.2,1.7,0.3,2.6,0.4
						c0.9,0.1,1.8,0.3,2.6,0.4c0.9,0.1,1.8,0.2,2.6,0.3c0.9,0.1,1.7,0.2,2.6,0.2c0.3,0,0.7,0,1,0.1s0.7,0,1,0c0.3,0,0.7,0,1,0
						c0.3,0,0.7,0,1,0c0,0,0,0,0,0c0,0,0,0,0,0c0,0,0,0,0,0c0,0,0,0,0,0c0.8,0,1.6,0,2.4-0.1c0.8,0,1.6-0.1,2.3-0.2
						c0.8-0.1,1.5-0.2,2.2-0.3c0.7-0.1,1.4-0.3,2.1-0.4c0.5-0.1,1-0.3,1.4-0.4c0.5-0.1,0.9-0.3,1.3-0.5c0.4-0.2,0.8-0.3,1.2-0.5
						C29,911.7,29.3,911.5,29.7,911.3"/>
				</g>
			</g>
			<g>
				<polygon fill="#7E0009" points="0.8,912.8 0.8,919.9 -7.5,933.2 -7.6,926.4 				"/>
			</g>
			<g>
				<path fill="#C2000E" d="M50.8,796.1c0.5,0,0.9,0,1.4,0.1c0.5,0,1,0.1,1.4,0.2c0.5,0.1,1,0.2,1.4,0.4c0.5,0.1,1,0.3,1.4,0.5
					c0.5,0.2,0.9,0.4,1.4,0.7c0.4,0.3,0.9,0.5,1.3,0.8c0.4,0.3,0.8,0.6,1.2,1c0.4,0.3,0.7,0.7,1,1.1c0.2,0.2,0.4,0.5,0.6,0.8
					c0.2,0.3,0.4,0.5,0.6,0.8c0.2,0.3,0.4,0.5,0.5,0.8c0.2,0.3,0.3,0.6,0.5,0.8c0.1,0.3,0.3,0.5,0.4,0.8s0.3,0.6,0.4,0.8
					c0.1,0.3,0.3,0.6,0.4,0.9c0.1,0.3,0.2,0.6,0.4,0.9c0.1,0.3,0.2,0.6,0.3,0.9s0.2,0.6,0.3,0.9c0.1,0.3,0.2,0.6,0.3,1
					c0.1,0.3,0.2,0.7,0.3,1c0.2,0.7,0.4,1.4,0.6,2.1c0.2,0.7,0.4,1.5,0.6,2.2c0.2,0.8,0.4,1.5,0.5,2.3c0.2,0.8,0.3,1.6,0.5,2.4
					c0.3,1.7,0.6,3.4,0.9,5.1c0.3,1.8,0.5,3.6,0.7,5.4c0.2,1.9,0.3,3.7,0.4,5.7c0.1,1.9,0.2,3.8,0.2,5.8c0,1.4,0,2.9-0.1,4.3
					c-0.1,1.4-0.1,2.9-0.2,4.3c-0.1,1.4-0.3,2.9-0.5,4.3c-0.2,1.4-0.4,2.8-0.7,4.2c-0.3,1.6-0.7,3.2-1,4.9c-0.4,1.7-0.8,3.5-1.3,5.3
					c-0.5,1.8-1,3.7-1.5,5.5c-0.5,1.9-1.1,3.8-1.8,5.7c-0.6,1.9-1.3,3.9-2,5.8c-0.7,1.9-1.4,3.9-2.2,5.8c-0.8,1.9-1.6,3.8-2.4,5.7
					c-0.8,1.9-1.7,3.7-2.6,5.5c-0.6,1.2-1.2,2.3-1.9,3.5c-0.6,1.1-1.3,2.2-2,3.3c-0.7,1.1-1.4,2.1-2.1,3.1c-0.7,1-1.5,2-2.3,2.9
					c-0.4,0.5-0.9,1.1-1.4,1.6c-0.5,0.5-0.9,1-1.4,1.5c-0.5,0.5-1,0.9-1.5,1.4c-0.5,0.4-1,0.9-1.6,1.3c-0.3,0.2-0.6,0.5-1,0.7
					c-0.3,0.2-0.6,0.4-1,0.7c-0.3,0.2-0.7,0.4-1,0.6c-0.3,0.2-0.7,0.4-1,0.6c-0.7,0.4-1.3,0.7-2,1c-0.7,0.3-1.3,0.6-2,0.8
					c-0.7,0.3-1.4,0.5-2.1,0.7c-0.7,0.2-1.4,0.4-2.1,0.6c-1.1,0.3-2.1,0.5-3.2,0.7c-1.1,0.2-2.1,0.3-3.2,0.4
					c-1.1,0.1-2.2,0.2-3.2,0.2c-1.1,0.1-2.2,0.1-3.2,0.1c-0.4,0-0.9,0-1.3,0c-0.4,0-0.9,0-1.3,0c-0.4,0-0.9,0-1.3-0.1
					c-0.4,0-0.9,0-1.3-0.1c-1.3-0.1-2.6-0.2-3.8-0.3c-1.3-0.1-2.5-0.3-3.8-0.5c-1.2-0.2-2.5-0.4-3.7-0.6c-1.2-0.2-2.4-0.4-3.6-0.7
					c-0.3-0.1-0.5-0.1-0.8-0.2c-0.3-0.1-0.5-0.1-0.8-0.2c-0.3-0.1-0.5-0.1-0.8-0.2c-0.3-0.1-0.5-0.1-0.8-0.2l8.4-13.6
					c0.9,0.2,1.7,0.3,2.6,0.4c0.9,0.1,1.8,0.3,2.6,0.4c0.9,0.1,1.8,0.2,2.6,0.3c0.9,0.1,1.7,0.2,2.6,0.2c0.3,0,0.7,0,1,0.1
					c0.3,0,0.7,0,1,0c0.3,0,0.7,0,1,0c0.3,0,0.7,0,1,0c0.9,0,1.7,0,2.5-0.1c0.8,0,1.6-0.1,2.4-0.2c0.8-0.1,1.5-0.2,2.2-0.3
					c0.7-0.1,1.4-0.3,2.1-0.4c0.5-0.1,1-0.3,1.4-0.4c0.5-0.1,0.9-0.3,1.3-0.5c0.4-0.2,0.8-0.3,1.2-0.5c0.4-0.2,0.8-0.4,1.1-0.6
					c0.1-0.1,0.3-0.2,0.4-0.2c0.1-0.1,0.2-0.2,0.4-0.2c0.1-0.1,0.2-0.2,0.4-0.2c0.1-0.1,0.2-0.2,0.3-0.3c0.3-0.2,0.5-0.4,0.8-0.7
					c0.3-0.2,0.6-0.5,0.9-0.8c0.3-0.3,0.6-0.6,0.9-0.9c0.3-0.3,0.6-0.7,0.9-1c0.3-0.4,0.6-0.8,0.9-1.2c0.3-0.4,0.6-0.8,0.9-1.3
					c0.3-0.4,0.6-0.9,0.9-1.4c0.3-0.5,0.6-1,0.9-1.5c0.6-1,1.2-2.1,1.8-3.2c0.6-1.1,1.2-2.3,1.8-3.5c0.6-1.2,1.2-2.4,1.7-3.7
					c0.6-1.3,1.1-2.6,1.7-3.9c1.1-2.6,2.1-5.3,3-8c0.9-2.7,1.8-5.4,2.6-8.1c0.8-2.7,1.5-5.3,2.1-7.7c0.6-2.5,1.1-4.8,1.5-7
					c0.2-1.1,0.4-2.2,0.5-3.3c0.2-1.1,0.3-2.3,0.4-3.5c0.1-1.2,0.2-2.4,0.2-3.7c0-1.2,0.1-2.5,0.1-3.7c0-1.1,0-2.2-0.1-3.3
					c0-1.1-0.1-2.2-0.2-3.3c-0.1-1.1-0.2-2.2-0.3-3.3c-0.1-1.1-0.2-2.1-0.4-3.2c-0.1-1-0.3-2.1-0.4-3.1c-0.2-1-0.3-2-0.5-2.9
					c-0.2-0.9-0.4-1.9-0.6-2.7c-0.2-0.9-0.4-1.7-0.6-2.5c-0.1-0.5-0.3-1-0.4-1.5c-0.1-0.5-0.3-1-0.4-1.4c-0.1-0.4-0.3-0.9-0.4-1.2
					c-0.1-0.4-0.3-0.8-0.4-1.1c-0.1-0.2-0.1-0.4-0.2-0.5c-0.1-0.2-0.1-0.3-0.2-0.5c-0.1-0.1-0.1-0.3-0.2-0.4s-0.1-0.2-0.2-0.3
					c0,0-0.1,0-0.1-0.1s-0.1,0-0.1,0c0,0-0.1,0-0.1,0s-0.1,0-0.1,0c0,0-0.1,0-0.1,0.1c-0.1,0-0.1,0-0.2,0.1s-0.1,0-0.2,0.1
					c-0.1,0-0.1,0-0.2,0.1c-0.1,0.1-0.2,0.1-0.4,0.2c-0.1,0.1-0.3,0.1-0.4,0.2s-0.3,0.1-0.4,0.2c-0.2,0.1-0.3,0.2-0.5,0.2
					c-0.5,0.3-1,0.6-1.5,0.9c-0.5,0.3-1.1,0.7-1.7,1.1c-0.6,0.4-1.2,0.8-1.8,1.3c-0.6,0.4-1.2,0.9-1.9,1.4c-0.2,0.2-0.5,0.4-0.8,0.6
					c-0.3,0.2-0.6,0.5-1,0.8c-0.3,0.3-0.7,0.7-1.1,1c-0.4,0.4-0.8,0.8-1.2,1.2c-0.4,0.4-0.8,0.9-1.3,1.3c-0.4,0.5-0.9,0.9-1.3,1.4
					c-0.5,0.5-0.9,1-1.4,1.5c-0.5,0.5-0.9,1.1-1.4,1.6c-1,1.1-1.9,2.2-2.9,3.4c-1,1.2-2,2.4-2.9,3.6c-1,1.2-1.9,2.4-2.9,3.6
					c-0.9,1.2-1.9,2.4-2.8,3.5c-0.6,0.8-1.2,1.5-1.7,2.2c-0.6,0.7-1.1,1.4-1.6,2.1c-0.5,0.7-1,1.3-1.5,1.9c-0.5,0.6-1,1.2-1.4,1.8
					c-0.3,0.3-0.5,0.6-0.7,0.9c-0.2,0.3-0.5,0.6-0.7,0.8c-0.2,0.3-0.4,0.5-0.6,0.8c-0.2,0.2-0.4,0.5-0.6,0.7
					c-0.1,0.1-0.2,0.2-0.3,0.4c-0.1,0.1-0.2,0.2-0.3,0.3c-0.1,0.1-0.2,0.2-0.4,0.3c-0.1,0.1-0.2,0.2-0.4,0.3c-0.3,0.2-0.7,0.4-1,0.6
					c-0.3,0.2-0.7,0.3-1.1,0.4c-0.4,0.1-0.7,0.2-1.1,0.3c-0.4,0.1-0.8,0.1-1.1,0.1c-0.4,0-0.9,0-1.3-0.1c-0.4-0.1-0.8-0.2-1.3-0.3
					c-0.4-0.1-0.8-0.3-1.2-0.6c-0.4-0.2-0.8-0.5-1.1-0.8c-0.6-0.5-1-1-1.4-1.6c-0.4-0.6-0.7-1.2-0.9-1.8c-0.2-0.6-0.3-1.3-0.3-2
					c0-0.7,0-1.3,0.2-2c0.1-0.3,0.1-0.6,0.2-0.8c0.1-0.3,0.2-0.5,0.3-0.8c0.1-0.3,0.3-0.5,0.4-0.8c0.2-0.2,0.4-0.5,0.6-0.7
					c0.2-0.2,0.4-0.4,0.6-0.7c0.2-0.3,0.5-0.6,0.8-0.9c0.3-0.3,0.6-0.7,0.9-1.1c0.3-0.4,0.6-0.8,1-1.2c0.3-0.4,0.7-0.9,1.1-1.4
					c0.4-0.5,0.8-1,1.2-1.5c0.4-0.5,0.8-1,1.2-1.6c0.4-0.5,0.9-1.1,1.3-1.7c0.4-0.5,0.8-1.1,1.3-1.6c0.4-0.5,0.9-1.1,1.3-1.7
					c0.4-0.6,0.9-1.1,1.4-1.7c0.5-0.6,0.9-1.1,1.4-1.7c0.5-0.7,1.1-1.3,1.6-2c0.5-0.7,1.1-1.3,1.6-2c0.5-0.7,1.1-1.3,1.6-2
					c0.5-0.6,1.1-1.3,1.6-1.9c0.7-0.8,1.4-1.6,2-2.3c0.7-0.8,1.3-1.5,2-2.2c0.7-0.7,1.3-1.4,2-2.1c0.6-0.7,1.3-1.3,1.9-1.9
					c0.4-0.4,0.7-0.7,1.1-1c0.4-0.3,0.7-0.7,1.1-1c0.4-0.3,0.7-0.6,1.1-0.9c0.4-0.3,0.7-0.6,1.1-0.9c0.5-0.4,1.1-0.8,1.6-1.2
					c0.5-0.4,1.1-0.8,1.6-1.2c0.5-0.4,1.1-0.8,1.6-1.1c0.5-0.4,1.1-0.7,1.7-1.1c0.4-0.2,0.7-0.4,1.1-0.7c0.4-0.2,0.7-0.4,1.1-0.6
					c0.4-0.2,0.8-0.4,1.1-0.6c0.4-0.2,0.8-0.4,1.2-0.6c0.2-0.1,0.4-0.2,0.6-0.3s0.4-0.2,0.6-0.3c0.2-0.1,0.4-0.2,0.6-0.2
					c0.2-0.1,0.4-0.2,0.7-0.2c0.4-0.1,0.9-0.3,1.3-0.4c0.4-0.1,0.9-0.2,1.4-0.3c0.5-0.1,0.9-0.2,1.4-0.2
					C49.8,796.1,50.3,796.1,50.8,796.1z"/>
			</g>
			<g>
				<path fill="#C2000E" d="M-56.4,885.1l66.1,13.4l-8.2,13.2l-0.8,1.2l-8.4,13.6l-6.9,11.1L-56.4,885.1z M-16.1,911.4l1.7-2.7
					l-4.5-0.9L-16.1,911.4"/>
			</g>
			<g>
				<polygon fill="#4E4E4E" points="-19,907.8 -14.4,908.8 -16.1,911.4 				"/>
			</g>
			<g>
				<path fill="#C2000E" d="M17.5,913.3c0.8,0,1.7,0,2.5-0.1c0.8,0,1.6-0.1,2.3-0.2c0.8-0.1,1.5-0.2,2.2-0.3
					c0.7-0.1,1.4-0.3,2.1-0.4c0.3-0.1,0.6-0.1,0.8-0.2c0.3-0.1,0.5-0.2,0.8-0.2c0.3-0.1,0.5-0.2,0.8-0.3c0.2-0.1,0.5-0.2,0.7-0.3
					c-0.4,0.2-0.7,0.4-1.1,0.6c-0.4,0.2-0.8,0.4-1.2,0.5c-0.4,0.2-0.9,0.3-1.3,0.5c-0.5,0.1-0.9,0.3-1.4,0.4
					c-0.7,0.2-1.3,0.3-2.1,0.4c-0.7,0.1-1.5,0.2-2.2,0.3c-0.8,0.1-1.5,0.1-2.3,0.2c-0.8,0-1.6,0.1-2.4,0.1c0,0,0,0,0,0c0,0,0,0,0,0
					c0,0,0,0,0,0c0,0,0,0,0,0c-0.3,0-0.7,0-1,0c-0.3,0-0.7,0-1,0c-0.3,0-0.7,0-1,0s-0.7,0-1-0.1c-0.9-0.1-1.7-0.1-2.6-0.2
					c-0.9-0.1-1.8-0.2-2.6-0.3c-0.9-0.1-1.8-0.2-2.6-0.4c-0.9-0.1-1.8-0.3-2.6-0.4l0.8-1.2c1,0.2,1.9,0.4,2.9,0.5c1,0.2,2,0.3,3,0.4
					c1,0.1,2,0.3,3,0.4c1,0.1,2,0.2,2.9,0.3c0.4,0,0.7,0,1,0.1c0.3,0,0.7,0,1,0c0.3,0,0.7,0,1,0c0.3,0,0.7,0,1,0c0,0,0,0,0,0
					C17.5,913.3,17.5,913.3,17.5,913.3C17.5,913.3,17.5,913.3,17.5,913.3C17.5,913.3,17.5,913.3,17.5,913.3z"/>
			</g>
			<g enable-background="new    ">
				<defs>
					<path id="SVGID_47_" enable-background="new    " d="M69.7,857.8l-1.4,8.2c0,0.1,0,0.3-0.1,0.4c0,0.1,0,0.3-0.1,0.4
						c0,0.1,0,0.3-0.1,0.4c0,0.1,0,0.3-0.1,0.4c-0.3,1.5-0.6,3.1-1,4.8c-0.4,1.7-0.8,3.4-1.3,5.2c-0.5,1.8-1,3.6-1.5,5.4
						c-0.5,1.8-1.1,3.7-1.7,5.6c-0.6,1.9-1.3,3.8-1.9,5.7c-0.7,1.9-1.4,3.8-2.2,5.7c-0.8,1.9-1.5,3.7-2.4,5.5
						c-0.8,1.8-1.7,3.6-2.6,5.3c-0.6,1.2-1.2,2.3-1.9,3.4c-0.6,1.1-1.3,2.2-2,3.3c-0.7,1.1-1.4,2.1-2.1,3.1c-0.7,1-1.5,1.9-2.2,2.9
						c-0.4,0.5-0.9,1-1.3,1.5c-0.5,0.5-0.9,1-1.4,1.5c-0.5,0.5-1,0.9-1.5,1.4c-0.5,0.4-1,0.9-1.5,1.3c-0.3,0.2-0.6,0.5-0.9,0.7
						c-0.3,0.2-0.6,0.4-1,0.6c-0.3,0.2-0.6,0.4-1,0.6c-0.3,0.2-0.7,0.4-1,0.6c-0.6,0.3-1.3,0.7-1.9,1c-0.7,0.3-1.3,0.6-2,0.8
						c-0.7,0.3-1.3,0.5-2,0.7c-0.7,0.2-1.4,0.4-2,0.6c-1,0.3-2.1,0.5-3.1,0.7c-1.1,0.2-2.1,0.3-3.2,0.4c-1.1,0.1-2.1,0.2-3.2,0.2
						c-1.1,0.1-2.1,0.1-3.2,0.1c-0.4,0-0.8,0-1.3,0c-0.4,0-0.8,0-1.3,0c-0.4,0-0.8,0-1.3-0.1c-0.4,0-0.8,0-1.3-0.1
						c-1.3-0.1-2.5-0.2-3.7-0.3c-1.2-0.1-2.5-0.3-3.7-0.5c-1.2-0.2-2.4-0.4-3.6-0.6c-1.2-0.2-2.3-0.4-3.5-0.6
						c-0.3-0.1-0.5-0.1-0.8-0.2c-0.3-0.1-0.5-0.1-0.8-0.2c-0.3-0.1-0.5-0.1-0.8-0.2c-0.3-0.1-0.5-0.1-0.8-0.2l-0.2-6.8
						c0.3,0.1,0.5,0.1,0.8,0.2c0.3,0.1,0.5,0.1,0.8,0.2c0.3,0.1,0.5,0.1,0.8,0.2c0.3,0.1,0.5,0.1,0.8,0.2c1.2,0.2,2.4,0.5,3.6,0.7
						c1.2,0.2,2.4,0.4,3.7,0.6c1.2,0.2,2.5,0.3,3.8,0.5c1.3,0.1,2.5,0.2,3.8,0.3c0.4,0,0.9,0.1,1.3,0.1c0.4,0,0.9,0,1.3,0.1
						c0.4,0,0.9,0,1.3,0c0.4,0,0.9,0,1.3,0c1.1,0,2.2,0,3.2-0.1c1.1-0.1,2.2-0.1,3.2-0.2c1.1-0.1,2.2-0.3,3.2-0.4
						c1.1-0.2,2.1-0.4,3.2-0.7c0.7-0.2,1.4-0.4,2.1-0.6c0.7-0.2,1.4-0.4,2.1-0.7c0.7-0.3,1.4-0.5,2-0.8c0.7-0.3,1.3-0.6,2-1
						c0.3-0.2,0.7-0.4,1-0.6c0.3-0.2,0.7-0.4,1-0.6c0.3-0.2,0.7-0.4,1-0.7c0.3-0.2,0.6-0.5,1-0.7c0.5-0.4,1.1-0.8,1.6-1.3
						c0.5-0.4,1-0.9,1.5-1.4c0.5-0.5,1-1,1.4-1.5c0.5-0.5,0.9-1,1.4-1.6c0.8-0.9,1.5-1.9,2.3-2.9c0.7-1,1.4-2.1,2.1-3.1
						c0.7-1.1,1.4-2.2,2-3.3c0.6-1.1,1.3-2.3,1.9-3.5c0.9-1.8,1.8-3.6,2.6-5.5c0.8-1.9,1.6-3.7,2.4-5.7c0.8-1.9,1.5-3.8,2.2-5.8
						c0.7-1.9,1.4-3.9,2-5.8c0.6-1.9,1.2-3.8,1.8-5.7c0.5-1.9,1.1-3.7,1.5-5.5c0.5-1.8,0.9-3.6,1.3-5.3c0.4-1.7,0.7-3.3,1-4.9
						c0-0.1,0.1-0.3,0.1-0.4c0-0.1,0-0.3,0.1-0.4c0-0.1,0-0.3,0.1-0.4C69.6,858.1,69.6,858,69.7,857.8z"/>
				</defs>
				<clipPath id="SVGID_48_">
					<use xlink:href="#SVGID_47_"  overflow="visible"/>
				</clipPath>
				<g clip-path="url(#SVGID_48_)" enable-background="new    ">
					<path fill="#800009" d="M69.7,857.8l-1.4,8.2c0,0.1,0,0.3-0.1,0.4c0,0.1,0,0.3-0.1,0.4c0,0.1,0,0.3-0.1,0.4
						c0,0.1,0,0.3-0.1,0.4c0,0.2-0.1,0.5-0.1,0.7c0,0.2-0.1,0.5-0.1,0.7c0,0.2-0.1,0.5-0.1,0.7c-0.1,0.2-0.1,0.5-0.2,0.7l1.4-8.1
						c0.1-0.2,0.1-0.5,0.2-0.7s0.1-0.5,0.2-0.7c0-0.2,0.1-0.5,0.1-0.7s0.1-0.5,0.1-0.7c0-0.1,0.1-0.3,0.1-0.4c0-0.1,0-0.3,0.1-0.4
						c0-0.1,0-0.3,0.1-0.4C69.6,858.1,69.6,858,69.7,857.8"/>
					<path fill="#7B0009" d="M68.8,862.4l-1.4,8.1c-0.3,1.4-0.6,2.8-1,4.3c-0.4,1.5-0.7,3-1.1,4.5c-0.4,1.5-0.8,3.1-1.3,4.7
						c-0.5,1.6-1,3.2-1.5,4.8c-0.5,1.5-1,2.9-1.5,4.4c-0.5,1.5-1.1,3-1.6,4.4c-0.6,1.5-1.1,2.9-1.7,4.4c-0.6,1.4-1.2,2.9-1.9,4.3
						l1.1-7.4c0.7-1.4,1.3-2.9,1.9-4.4c0.6-1.5,1.2-3,1.8-4.5c0.6-1.5,1.1-3,1.6-4.5c0.5-1.5,1-3,1.5-4.5c0.5-1.6,1-3.3,1.5-4.9
						c0.5-1.6,0.9-3.2,1.3-4.7c0.4-1.6,0.8-3.1,1.2-4.6C68.1,865.2,68.5,863.8,68.8,862.4"/>
					<path fill="#770009" d="M56.9,898.7l-1.1,7.4c-0.2,0.4-0.4,0.8-0.6,1.2c-0.2,0.4-0.4,0.8-0.6,1.2c-0.2,0.4-0.4,0.8-0.6,1.2
						c-0.2,0.4-0.4,0.8-0.6,1.2c-0.5,1-1.1,2.1-1.7,3.1c-0.6,1-1.1,2-1.7,2.9c-0.6,1-1.2,1.9-1.8,2.8c-0.6,0.9-1.3,1.8-1.9,2.6
						l0.9-7.1c0.7-0.9,1.3-1.8,2-2.7c0.6-0.9,1.3-1.9,1.9-2.9c0.6-1,1.2-2,1.8-3c0.6-1,1.1-2.1,1.7-3.1c0.2-0.4,0.4-0.8,0.6-1.2
						c0.2-0.4,0.4-0.8,0.6-1.2c0.2-0.4,0.4-0.8,0.6-1.2C56.5,899.6,56.7,899.2,56.9,898.7"/>
					<path fill="#720008" d="M47.2,915.3l-0.9,7.1c-0.1,0.1-0.2,0.2-0.2,0.3c-0.1,0.1-0.2,0.2-0.2,0.3c-0.1,0.1-0.2,0.2-0.2,0.3
						c-0.1,0.1-0.2,0.2-0.2,0.3c-0.4,0.5-0.9,1-1.3,1.5c-0.5,0.5-0.9,1-1.4,1.5c-0.5,0.5-1,0.9-1.5,1.4c-0.5,0.4-1,0.9-1.5,1.3
						c-0.3,0.2-0.6,0.5-0.9,0.7c-0.3,0.2-0.6,0.4-1,0.6c-0.3,0.2-0.6,0.4-1,0.6c-0.3,0.2-0.7,0.4-1,0.6c-0.6,0.3-1.3,0.7-1.9,1
						c-0.7,0.3-1.3,0.6-2,0.8c-0.7,0.3-1.3,0.5-2,0.7c-0.7,0.2-1.4,0.4-2,0.6c-1,0.3-2.1,0.5-3.1,0.7c-1.1,0.2-2.1,0.3-3.2,0.4
						c-1.1,0.1-2.1,0.2-3.2,0.2c-1.1,0.1-2.1,0.1-3.2,0.1c-0.4,0-0.8,0-1.3,0c-0.4,0-0.8,0-1.3,0c-0.4,0-0.8,0-1.3-0.1
						c-0.4,0-0.8,0-1.3-0.1c-1.3-0.1-2.5-0.2-3.7-0.3c-1.2-0.1-2.5-0.3-3.7-0.5c-1.2-0.2-2.4-0.4-3.6-0.6c-1.2-0.2-2.3-0.4-3.5-0.6
						c-0.3-0.1-0.5-0.1-0.8-0.2c-0.3-0.1-0.5-0.1-0.8-0.2c-0.3-0.1-0.5-0.1-0.8-0.2c-0.3-0.1-0.5-0.1-0.8-0.2l-0.2-6.8
						c0.3,0.1,0.5,0.1,0.8,0.2c0.3,0.1,0.5,0.1,0.8,0.2c0.3,0.1,0.5,0.1,0.8,0.2c0.3,0.1,0.5,0.1,0.8,0.2c1.2,0.2,2.4,0.5,3.6,0.7
						c1.2,0.2,2.4,0.4,3.7,0.6c1.2,0.2,2.5,0.3,3.8,0.5c1.3,0.1,2.5,0.2,3.8,0.3c0.4,0,0.9,0.1,1.3,0.1c0.4,0,0.9,0,1.3,0.1
						c0.4,0,0.9,0,1.3,0c0.4,0,0.9,0,1.3,0c1.1,0,2.2,0,3.2-0.1c1.1-0.1,2.2-0.1,3.2-0.2c1.1-0.1,2.2-0.3,3.2-0.4
						c1.1-0.2,2.1-0.4,3.2-0.7c0.7-0.2,1.4-0.4,2.1-0.6c0.7-0.2,1.4-0.4,2.1-0.7c0.7-0.3,1.4-0.5,2-0.8c0.7-0.3,1.3-0.6,2-1
						c0.3-0.2,0.7-0.4,1-0.6c0.3-0.2,0.7-0.4,1-0.6c0.3-0.2,0.7-0.4,1-0.7c0.3-0.2,0.6-0.5,1-0.7c0.5-0.4,1.1-0.8,1.6-1.3
						c0.5-0.4,1-0.9,1.5-1.4c0.5-0.5,1-1,1.4-1.5c0.5-0.5,0.9-1,1.4-1.6c0.1-0.1,0.2-0.2,0.2-0.3c0.1-0.1,0.2-0.2,0.2-0.3
						s0.2-0.2,0.2-0.3C47.1,915.5,47.1,915.4,47.2,915.3"/>
				</g>
			</g>
			<g enable-background="new    ">
				<defs>
					<path id="SVGID_49_" enable-background="new    " d="M37.9,930.5c0.3-2.3,0.5-4.6,0.8-6.9c0.3-0.2,0.6-0.4,1-0.6
						c0.3-0.2,0.6-0.4,1-0.6c0.3-0.2,0.6-0.4,0.9-0.6c0.3-0.2,0.6-0.4,0.9-0.7c0.5-0.4,1.1-0.8,1.6-1.3c0.5-0.4,1-0.9,1.5-1.4
						c0.5-0.5,1-1,1.4-1.5c0.5-0.5,0.9-1,1.4-1.6c0.8-0.9,1.5-1.9,2.3-2.9c0.7-1,1.4-2.1,2.1-3.1c0.7-1.1,1.4-2.2,2-3.3
						c0.6-1.1,1.3-2.3,1.9-3.5c0.9-1.8,1.8-3.6,2.6-5.4c0.8-1.9,1.6-3.7,2.4-5.7c0.8-1.9,1.5-3.8,2.2-5.8c0.7-1.9,1.4-3.9,2-5.8
						c0.6-1.9,1.2-3.8,1.7-5.7c0.5-1.9,1.1-3.7,1.5-5.5c0.5-1.8,0.9-3.6,1.3-5.3c0.4-1.7,0.7-3.3,1-4.9c0-0.1,0-0.2,0.1-0.3
						c0-0.1,0-0.2,0.1-0.3c0-0.1,0-0.2,0.1-0.3c0-0.1,0-0.2,0.1-0.3l-1.4,8.2c0,0.1,0,0.2-0.1,0.3s0,0.2-0.1,0.3s0,0.2-0.1,0.3
						c0,0.1,0,0.2-0.1,0.3c-0.3,1.5-0.6,3.1-1,4.8c-0.4,1.7-0.8,3.4-1.3,5.2c-0.5,1.8-1,3.6-1.5,5.4c-0.5,1.8-1.1,3.7-1.7,5.6
						c-0.6,1.9-1.3,3.8-1.9,5.7c-0.7,1.9-1.4,3.8-2.2,5.7c-0.8,1.9-1.5,3.7-2.4,5.5c-0.8,1.8-1.7,3.6-2.6,5.3
						c-0.6,1.2-1.2,2.3-1.8,3.4c-0.6,1.1-1.3,2.2-2,3.3c-0.7,1.1-1.4,2.1-2.1,3.1c-0.7,1-1.5,1.9-2.2,2.9c-0.4,0.5-0.9,1-1.3,1.5
						c-0.5,0.5-0.9,1-1.4,1.5c-0.5,0.5-1,0.9-1.5,1.4c-0.5,0.4-1,0.9-1.5,1.3c-0.3,0.2-0.6,0.4-0.9,0.7c-0.3,0.2-0.6,0.4-0.9,0.6
						c-0.3,0.2-0.6,0.4-0.9,0.6C38.5,930.2,38.2,930.4,37.9,930.5z"/>
				</defs>
				<clipPath id="SVGID_50_">
					<use xlink:href="#SVGID_49_"  overflow="visible"/>
				</clipPath>
				<g clip-path="url(#SVGID_50_)" enable-background="new    ">
					<path fill="#800009" d="M71.6,857.2l-1.4,8.2c0,0.1,0,0.2-0.1,0.3c0,0.1,0,0.2-0.1,0.3s0,0.2-0.1,0.3c0,0.1,0,0.2-0.1,0.3
						c0,0.2-0.1,0.5-0.1,0.7c0,0.2-0.1,0.5-0.1,0.7c-0.1,0.2-0.1,0.5-0.2,0.7c-0.1,0.2-0.1,0.5-0.2,0.7l1.4-8.1
						c0.1-0.3,0.1-0.5,0.2-0.8c0.1-0.3,0.1-0.5,0.2-0.8c0.1-0.2,0.1-0.5,0.2-0.7c0-0.2,0.1-0.5,0.1-0.7c0-0.1,0-0.2,0.1-0.3
						c0-0.1,0-0.2,0.1-0.3c0-0.1,0-0.2,0.1-0.3C71.6,857.4,71.6,857.3,71.6,857.2"/>
					<path fill="#7B0009" d="M70.8,861.4l-1.4,8.1c-0.3,1.4-0.6,2.8-1,4.2c-0.4,1.5-0.7,2.9-1.1,4.5c-0.4,1.5-0.8,3.1-1.3,4.6
						c-0.5,1.6-0.9,3.2-1.5,4.7c-0.5,1.5-1,2.9-1.5,4.4c-0.5,1.5-1.1,3-1.6,4.4c-0.6,1.5-1.1,2.9-1.7,4.4c-0.6,1.4-1.2,2.9-1.9,4.3
						l1.2-7.4c0.7-1.4,1.3-2.9,1.9-4.4c0.6-1.5,1.2-3,1.8-4.5c0.6-1.5,1.1-3,1.7-4.5c0.5-1.5,1-3,1.5-4.5c0.5-1.6,1-3.2,1.5-4.8
						c0.5-1.6,0.9-3.2,1.3-4.7c0.4-1.5,0.8-3.1,1.2-4.6C70.1,864.3,70.5,862.8,70.8,861.4"/>
					<path fill="#770009" d="M58.9,897.7l-1.2,7.4c-0.2,0.4-0.4,0.8-0.6,1.2c-0.2,0.4-0.4,0.8-0.6,1.2c-0.2,0.4-0.4,0.8-0.6,1.2
						c-0.2,0.4-0.4,0.8-0.6,1.2c-0.5,1-1.1,2.1-1.7,3.1c-0.6,1-1.1,2-1.7,2.9c-0.6,1-1.2,1.9-1.8,2.8c-0.6,0.9-1.3,1.8-1.9,2.6
						l1-7.1c0.7-0.9,1.3-1.8,2-2.7c0.6-0.9,1.3-1.9,1.9-2.9c0.6-1,1.2-2,1.8-3c0.6-1,1.1-2.1,1.7-3.1c0.2-0.4,0.4-0.8,0.6-1.2
						c0.2-0.4,0.4-0.8,0.6-1.2c0.2-0.4,0.4-0.8,0.6-1.2C58.5,898.6,58.7,898.2,58.9,897.7"/>
					<path fill="#720008" d="M49.2,914.3l-1,7.1c-0.1,0.1-0.2,0.2-0.2,0.3c-0.1,0.1-0.2,0.2-0.2,0.3c-0.1,0.1-0.2,0.2-0.2,0.3
						c-0.1,0.1-0.2,0.2-0.2,0.3c-0.4,0.5-0.9,1-1.3,1.5c-0.5,0.5-0.9,1-1.4,1.5c-0.5,0.5-1,0.9-1.5,1.4c-0.5,0.4-1,0.9-1.5,1.3
						c-0.5,0.4-0.9,0.7-1.4,1c-0.5,0.3-1,0.6-1.4,0.9c-0.5,0.3-1,0.6-1.5,0.8c-0.5,0.3-1,0.5-1.5,0.7l0.7-6.9c0.5-0.2,1-0.5,1.5-0.7
						c0.5-0.3,1-0.5,1.5-0.8c0.5-0.3,1-0.6,1.5-0.9c0.5-0.3,1-0.7,1.4-1c0.5-0.4,1.1-0.8,1.6-1.3c0.5-0.4,1-0.9,1.5-1.4
						c0.5-0.5,1-1,1.4-1.5c0.5-0.5,0.9-1,1.4-1.6c0.1-0.1,0.2-0.2,0.2-0.3c0.1-0.1,0.2-0.2,0.2-0.3c0.1-0.1,0.2-0.2,0.2-0.3
						C49.1,914.5,49.1,914.4,49.2,914.3"/>
				</g>
			</g>
			<g enable-background="new    ">
				<defs>
					<path id="SVGID_51_" enable-background="new    " d="M37.9,930.5c-0.2,0.1-0.3,0.2-0.5,0.3c-0.2,0.1-0.4,0.2-0.5,0.3
						c-0.2,0.1-0.4,0.2-0.5,0.3c-0.2,0.1-0.4,0.2-0.5,0.2l0.7-6.9c0.2-0.1,0.4-0.2,0.5-0.3c0.2-0.1,0.4-0.2,0.5-0.3
						c0.2-0.1,0.4-0.2,0.5-0.3c0.2-0.1,0.4-0.2,0.5-0.3C38.4,925.9,38.1,928.2,37.9,930.5z"/>
				</defs>
				<clipPath id="SVGID_52_">
					<use xlink:href="#SVGID_51_"  overflow="visible"/>
				</clipPath>
				<g clip-path="url(#SVGID_52_)" enable-background="new    ">
					<path fill="#720008" d="M49.2,914.3l-1,7.1c-0.1,0.1-0.2,0.2-0.2,0.3c-0.1,0.1-0.2,0.2-0.2,0.3c-0.1,0.1-0.2,0.2-0.2,0.3
						c-0.1,0.1-0.2,0.2-0.2,0.3c-0.4,0.5-0.9,1-1.3,1.5c-0.5,0.5-0.9,1-1.4,1.5c-0.5,0.5-1,0.9-1.5,1.4c-0.5,0.4-1,0.9-1.5,1.3
						c-0.5,0.4-0.9,0.7-1.4,1c-0.5,0.3-1,0.6-1.4,0.9c-0.5,0.3-1,0.6-1.5,0.8c-0.5,0.3-1,0.5-1.5,0.7l0.7-6.9c0.5-0.2,1-0.5,1.5-0.7
						c0.5-0.3,1-0.5,1.5-0.8c0.5-0.3,1-0.6,1.5-0.9c0.5-0.3,1-0.7,1.4-1c0.5-0.4,1.1-0.8,1.6-1.3c0.5-0.4,1-0.9,1.5-1.4
						c0.5-0.5,1-1,1.4-1.5c0.5-0.5,0.9-1,1.4-1.6c0.1-0.1,0.2-0.2,0.2-0.3c0.1-0.1,0.2-0.2,0.2-0.3c0.1-0.1,0.2-0.2,0.2-0.3
						C49.1,914.5,49.1,914.4,49.2,914.3"/>
				</g>
			</g>
			<g>
				<path fill="#C2000E" d="M70.7,819.3c0.3,1.7,0.6,3.4,0.9,5.1c0.3,1.8,0.5,3.6,0.7,5.4c0.2,1.9,0.3,3.7,0.4,5.7
					c0.1,1.9,0.2,3.8,0.2,5.8c0,1.4,0,2.9-0.1,4.3c-0.1,1.4-0.1,2.9-0.2,4.3c-0.1,1.4-0.3,2.9-0.5,4.3c-0.2,1.4-0.4,2.8-0.7,4.2
					c-0.3,1.6-0.6,3.2-1,4.9c-0.4,1.7-0.8,3.5-1.3,5.3c-0.5,1.8-1,3.7-1.5,5.5c-0.5,1.9-1.1,3.8-1.7,5.7c-0.6,1.9-1.3,3.9-2,5.8
					c-0.7,1.9-1.4,3.9-2.2,5.8c-0.8,1.9-1.6,3.8-2.4,5.7c-0.8,1.9-1.7,3.7-2.6,5.4c-0.6,1.2-1.2,2.3-1.9,3.5c-0.6,1.1-1.3,2.2-2,3.3
					c-0.7,1.1-1.4,2.1-2.1,3.1c-0.7,1-1.5,2-2.3,2.9c-0.4,0.5-0.9,1.1-1.4,1.6c-0.5,0.5-0.9,1-1.4,1.5c-0.5,0.5-1,0.9-1.5,1.4
					c-0.5,0.4-1,0.9-1.6,1.3c-0.5,0.4-0.9,0.7-1.4,1c-0.5,0.3-1,0.6-1.5,0.9c-0.5,0.3-1,0.6-1.5,0.8c-0.5,0.3-1,0.5-1.5,0.7
					c0.3-0.2,0.7-0.4,1-0.6c0.3-0.2,0.7-0.4,1-0.6c0.3-0.2,0.7-0.4,1-0.7c0.3-0.2,0.6-0.5,1-0.7c0.5-0.4,1.1-0.8,1.6-1.3
					c0.5-0.4,1-0.9,1.5-1.4c0.5-0.5,1-1,1.4-1.5c0.5-0.5,0.9-1,1.4-1.6c0.8-0.9,1.5-1.9,2.3-2.9c0.7-1,1.4-2.1,2.1-3.1
					c0.7-1.1,1.4-2.2,2-3.3c0.6-1.1,1.3-2.3,1.9-3.5c0.9-1.8,1.8-3.6,2.6-5.5c0.8-1.9,1.6-3.7,2.4-5.7c0.8-1.9,1.5-3.8,2.2-5.8
					c0.7-1.9,1.4-3.9,2-5.8c0.6-1.9,1.2-3.8,1.8-5.7c0.5-1.9,1.1-3.7,1.5-5.5c0.5-1.8,0.9-3.6,1.3-5.3c0.4-1.7,0.7-3.3,1-4.9
					c0.3-1.4,0.5-2.8,0.7-4.2c0.2-1.4,0.3-2.8,0.5-4.3c0.1-1.4,0.2-2.9,0.2-4.3c0.1-1.4,0.1-2.9,0.1-4.3c0-1.9-0.1-3.9-0.2-5.8
					c-0.1-1.9-0.2-3.8-0.4-5.7c-0.2-1.9-0.4-3.7-0.7-5.4c-0.3-1.8-0.5-3.5-0.9-5.1c-0.2-0.8-0.3-1.6-0.5-2.4
					c-0.2-0.8-0.3-1.6-0.5-2.3c-0.2-0.8-0.4-1.5-0.6-2.2c-0.2-0.7-0.4-1.4-0.6-2.1c-0.1-0.3-0.2-0.7-0.3-1c-0.1-0.3-0.2-0.7-0.3-1
					c-0.1-0.3-0.2-0.6-0.3-0.9c-0.1-0.3-0.2-0.6-0.3-0.9c-0.1-0.3-0.2-0.6-0.4-0.9s-0.2-0.6-0.4-0.9c-0.1-0.3-0.3-0.6-0.4-0.8
					c-0.1-0.3-0.3-0.5-0.4-0.8c-0.2-0.3-0.3-0.6-0.5-0.8c-0.2-0.3-0.3-0.6-0.5-0.8c-0.2-0.3-0.4-0.5-0.6-0.8
					c-0.2-0.3-0.4-0.5-0.6-0.8c-0.3-0.4-0.7-0.7-1-1.1c-0.4-0.3-0.8-0.7-1.2-1c-0.4-0.3-0.8-0.6-1.3-0.8c-0.4-0.3-0.9-0.5-1.4-0.7
					c-0.5-0.2-0.9-0.4-1.4-0.5c-0.5-0.1-1-0.3-1.4-0.4c-0.5-0.1-1-0.2-1.4-0.2c-0.5,0-0.9-0.1-1.4-0.1c-0.5,0-1,0-1.5,0.1
					c-0.5,0-1,0.1-1.4,0.2c-0.5,0.1-0.9,0.2-1.4,0.3c-0.4,0.1-0.9,0.2-1.3,0.4c-0.2,0.1-0.4,0.1-0.7,0.2c-0.2,0.1-0.4,0.2-0.6,0.2
					c-0.2,0.1-0.4,0.2-0.6,0.3s-0.4,0.2-0.6,0.3c0.4-0.2,0.7-0.4,1.1-0.6c0.4-0.2,0.7-0.4,1.1-0.5c0.4-0.2,0.8-0.3,1.2-0.5
					c0.4-0.2,0.8-0.3,1.2-0.4c0.4-0.1,0.9-0.3,1.3-0.4c0.4-0.1,0.9-0.2,1.4-0.3c0.5-0.1,0.9-0.2,1.4-0.2s1-0.1,1.5-0.1
					c0.5,0,0.9,0,1.4,0.1c0.5,0,1,0.1,1.4,0.2c0.5,0.1,1,0.2,1.4,0.4c0.5,0.1,0.9,0.3,1.4,0.5c0.5,0.2,0.9,0.4,1.4,0.7
					c0.4,0.3,0.9,0.5,1.3,0.8c0.4,0.3,0.8,0.6,1.2,1c0.4,0.3,0.7,0.7,1,1.1c0.2,0.2,0.4,0.5,0.6,0.8c0.2,0.3,0.4,0.5,0.6,0.8
					c0.2,0.3,0.4,0.5,0.5,0.8s0.3,0.6,0.5,0.8c0.1,0.3,0.3,0.5,0.4,0.8c0.1,0.3,0.3,0.6,0.4,0.8s0.3,0.6,0.4,0.9
					c0.1,0.3,0.2,0.6,0.4,0.9c0.1,0.3,0.2,0.6,0.3,0.9c0.1,0.3,0.2,0.6,0.3,0.9c0.1,0.3,0.2,0.6,0.3,1s0.2,0.7,0.3,1
					c0.2,0.7,0.4,1.4,0.6,2.1c0.2,0.7,0.4,1.5,0.6,2.2c0.2,0.8,0.4,1.5,0.5,2.3C70.4,817.7,70.5,818.5,70.7,819.3z"/>
			</g>
			<g>
				<polygon fill="#7E0009" points="-7.6,926.4 -7.5,933.2 -14.2,944.1 -14.5,937.5 				"/>
			</g>
			<g>
				<polygon fill="#6E0008" points="-14.5,937.5 -14.2,944.1 -55.3,892.7 -56.4,885.1 				"/>
			</g>
		</g>
	</g>
</g>
</svg>
