
<svg xmlns="http://www.w3.org/2000/svg" version="1.1" xmlns:xlink="http://www.w3.org/1999/xlink" preserveAspectRatio="none" x="0px" y="0px" width="1420px" height="512px" viewBox="0 0 1420 512">
<defs>
<linearGradient id="Gradient_1" gradientUnits="userSpaceOnUse" x1="210.58750000000003" y1="266.775" x2="303.1125" y2="160.42499999999998" spreadMethod="pad">
<stop  offset="0%" stop-color="#5070CE"/>

<stop  offset="100%" stop-color="#294AB8"/>
</linearGradient>

<linearGradient id="Gradient_2" gradientUnits="userSpaceOnUse" x1="229.6875" y1="129.11249999999998" x2="147.3125" y2="229.2875" spreadMethod="pad">
<stop  offset="0%" stop-color="#E56E5C"/>

<stop  offset="100%" stop-color="#DD4538"/>
</linearGradient>

<linearGradient id="Gradient_3" gradientUnits="userSpaceOnUse" x1="229.6875" y1="107.01249999999999" x2="147.3125" y2="207.1875" spreadMethod="pad">
<stop  offset="0%" stop-color="#E56E5C"/>

<stop  offset="100%" stop-color="#DD4538"/>
</linearGradient>

<linearGradient id="Gradient_4" gradientUnits="userSpaceOnUse" x1="-0.025000000000005684" y1="100.55" x2="171.225" y2="100.55" spreadMethod="pad">
<stop  offset="0%" stop-color="#5070CE"/>

<stop  offset="100%" stop-color="#294AB8"/>
</linearGradient>

<linearGradient id="Gradient_5" gradientUnits="userSpaceOnUse" x1="-12.762500000000003" y1="266.775" x2="79.7625" y2="160.42499999999998" spreadMethod="pad">
<stop  offset="0%" stop-color="#5070CE"/>

<stop  offset="100%" stop-color="#294AB8"/>
</linearGradient>

<filter id="Filter_1" x="-20%" y="-20%" width="140%" height="140%" color-interpolation-filters="sRGB">
<feColorMatrix in="SourceGraphic" type="matrix" values="1 0 0 0 0 0 1 0 0 0 0 0 1 0 0 0 0 0 0 0" result="result1"/>
</filter>

<filter id="Filter_2" x="-20%" y="-20%" width="140%" height="140%" color-interpolation-filters="sRGB">
<feColorMatrix in="SourceGraphic" type="matrix" values="0 0 0 0 0.2196078431372549 0 0 0 0 0.36470588235294116 0 0 0 0 0.807843137254902 0 0 0 1 0" result="result1"/>
</filter>

<g id="LEFT_ARROW_0_Layer0_0_FILL">
<path fill="url(#Gradient_1)" stroke="none" d="
M 350.3 268
L 349.9 268.05 44.65 268.3 44.65 245.7 0 290.35 44.85 335.2 44.85 312.7 394.6 312.7 395 268 350.3 268 Z"/>
</g>

<g id="DOWN_ARROW_0_Layer0_0_FILL">
<path fill="url(#Gradient_1)" stroke="none" d="
M 395 193
L 350.3 193 349.9 268.05 350.4 269.85 395 270 395 193 Z"/>
</g>

<g id="RIGHT_ARROW_0_Layer0_0_FILL">
<path fill="url(#Gradient_2)" stroke="none" d="
M 349.75 0
L 349.75 22.35 0 22.1 0 67 349.9 67.25 349.9 89.5 394.6 44.85 349.75 0 Z"/>
</g>

<g id="S_mbolo_4_0_Layer0_0_FILL">
<path fill="url(#Gradient_3)" stroke="none" d="
M 44.6 193.8
L 0 193.8 0 312.95 163.8 312.95 164 194 119.3 194 119.1 268.25 44.6 268.25 44.6 193.8 Z"/>
</g>

<g id="N_0_Layer0_0_FILL">
<path fill="url(#Gradient_4)" stroke="none" d="
M 44.65 0
L 0 0 0 201.05 44.65 201.05 126.55 74.45 126.55 201.1 171.25 201.1 171.25 0 126.55 0 44.65 126.6 44.65 0 Z"/>
</g>

<g id="A_0_Layer0_0_FILL">
<path fill="url(#Gradient_1)" stroke="none" d="
M 394.6 0
L 349.9 0 268 126.6 223.35 201.05 268 201.05 349.9 74.45 350 201 395 201 394.6 0 Z"/>
</g>

<g id="R_0_Layer0_0_FILL">
<path fill="url(#Gradient_5)" stroke="none" d="
M 171 74
L 171.25 0 126.55 0 44.65 126.6 44.65 0 0 0 0 201.05 44.65 201.05 126.55 74.45 126.3 74 171 74 Z"/>
</g>

<g id="T_0_Layer0_0_FILL">
<path fill="url(#Gradient_3)" stroke="none" d="
M 273.45 45.15
L 273.45 0.2 13 0.1 13 45 119.1 45.15 119 314 164 314 163.8 45.15 273.45 45.15 Z"/>
</g>

<g id="J_0_Layer0_0_FILL">
<path fill="url(#Gradient_2)" stroke="none" d="
M 283 67
L 282.85 22.1 0 22.1 0 67 119.1 67.25 119.1 290.35 44.6 290.35 44.6 215.9 0 215.9 0 335.05 163.8 335.05 163.8 67.25 283 67 Z"/>
</g>
</defs>

<g transform="matrix( 0.3333282470703125, 0, 0, 1, 325,158.8) ">
<g transform="matrix( 1, 0, 0, 1, 0,0) ">
<use filter="url(#Filter_1)" xlink:href="#LEFT_ARROW_0_Layer0_0_FILL"/>
</g>
</g>

<g transform="matrix( 1, 0, 0, 0.3166656494140625, 62.4,341.5) ">
<g transform="matrix( 1, 0, 0, 1, 0,0) ">
<use filter="url(#Filter_1)" xlink:href="#DOWN_ARROW_0_Layer0_0_FILL"/>
</g>
</g>

<g transform="matrix( 1, 0, 0, 1, 346.7,25.5) ">
<g transform="matrix( 1, 0, 0, 1, 0,0) ">
<use filter="url(#Filter_1)" xlink:href="#RIGHT_ARROW_0_Layer0_0_FILL"/>
</g>
</g>

<g transform="matrix( 0, 1.1999969482421875, -1.1999969482421875, 0, 1580,159) ">
<g transform="matrix( 1, 0, 0, 1, 0,0) ">
<use filter="url(#Filter_2)" xlink:href="#S_mbolo_4_0_Layer0_0_FILL"/>
</g>
</g>

<g id="n" transform="matrix( 1, 0, 0, -1, 806.4,359.55) ">
<g transform="matrix( 1, 0, 0, 1, 0,0) ">
<use xlink:href="#N_0_Layer0_0_FILL"/>
</g>
</g>

<g id="n_FL" transform="matrix( 0, -1.144195556640625, 0.805572509765625, 0, 1010,356.95) ">
<g transform="matrix( 1, 0, 0, 1, 0,0) ">
<use xlink:href="#N_0_Layer0_0_FILL"/>
</g>
</g>

<g transform="matrix( 1, 0, 0, 1, 381,158) ">
<g transform="matrix( 1, 0, 0, 1, 0,0) ">
<use xlink:href="#A_0_Layer0_0_FILL"/>
</g>
</g>

<g id="r" transform="matrix( 1, 0, 0, 1, 486.75,158) ">
<g transform="matrix( 1, 0, 0, 1, 0,0) ">
<use xlink:href="#R_0_Layer0_0_FILL"/>
</g>
</g>

<g transform="matrix( 0.6899871826171875, 0, 0, 0.644989013671875, 268.7,157.05) ">
<g transform="matrix( 1, 0, 0, 1, 0,0) ">
<use filter="url(#Filter_2)" xlink:href="#T_0_Layer0_0_FILL"/>
</g>
</g>

<g transform="matrix( 1, 0, 0, 1, 62.7,24.5) ">
<g transform="matrix( 1, 0, 0, 1, 0,0) ">
<use xlink:href="#J_0_Layer0_0_FILL"/>
</g>
</g>
</svg>
